<?xml version="1.0" encoding="utf-8"?>
<!-- Generator: Adobe Illustrator 19.0.0, SVG Export Plug-In . SVG Version: 6.00 Build 0)  -->
<svg version="1.1" id="Layer_1" xmlns="http://www.w3.org/2000/svg" xmlns:xlink="http://www.w3.org/1999/xlink" x="0px" y="0px"
	 viewBox="-468 269 23 23" style="enable-background:new -468 269 23 23;" xml:space="preserve">
<style type="text/css">
	.st0{fill:#007ACF;}
</style>
<path class="st0" d="M-446,279.8C-446,279.8-446,279.8-446,279.8c0.1-0.1,0.1-0.2,0.1-0.2c0,0,0,0,0-0.1c0,0,0,0,0,0
	c0,0,0-0.1,0-0.1c0,0,0-0.1,0-0.1c0,0,0-0.1-0.1-0.1c0,0,0-0.1-0.1-0.1c0,0,0,0,0,0l-10.3-7.5l-3.7,2.7V272c0-0.5-0.4-0.8-0.8-0.8
	h-1.7c-0.5,0-0.8,0.4-0.8,0.8v4.8l-3.3,2.4c0,0,0,0,0,0c0,0,0,0-0.1,0.1c0,0,0,0-0.1,0.1c0,0,0,0.1,0,0.1c0,0,0,0.1,0,0.1
	c0,0,0,0,0,0c0,0,0,0,0,0.1c0,0,0,0.1,0,0.1c0,0,0,0.1,0,0.1c0,0,0,0,0,0c0,0,0,0,0,0c0,0,0,0,0.1,0.1c0,0,0,0,0.1,0.1
	c0,0,0.1,0,0.1,0c0,0,0.1,0,0.1,0c0,0,0,0,0,0h2.6v9.7h6.1v-4.4c0-0.7,0.6-1.3,1.3-1.3c0.7,0,1.3,0.6,1.3,1.3v4.4h6.1v-9.7h2.6
	c0.1,0,0.1,0,0.2,0c0,0,0,0,0.1,0C-446.1,280-446.1,279.9-446,279.8C-446.1,279.9-446,279.9-446,279.8
	C-446,279.9-446,279.8-446,279.8z M-462.6,272.2h1.4v2.9l-1.4,1V272.2z M-450.1,288.8h-4.1v-3.4c0-1.3-1-2.3-2.3-2.3
	c-1.3,0-2.3,1-2.3,2.3v3.4h-4.1v-9.2c0-0.3-0.2-0.5-0.5-0.5h-1.6l8.5-6.2l8.5,6.2h-1.6c-0.3,0-0.5,0.2-0.5,0.5V288.8z"/>
</svg>
