<?xml version="1.0" encoding="utf-8"?>
<!-- Generator: Adobe Illustrator 19.0.0, SVG Export Plug-In . SVG Version: 6.00 Build 0)  -->
<svg version="1.1" id="Layer_1" xmlns="http://www.w3.org/2000/svg" xmlns:xlink="http://www.w3.org/1999/xlink" x="0px" y="0px"
	 viewBox="0 0 23 23" style="enable-background:new 0 0 23 23;" xml:space="preserve">
<style type="text/css">
	.st0{fill:#43D6C8;}
</style>
<g id="XMLID_236_">
	<path id="XMLID_131_" class="st0" d="M10,2.8L5.9,7L4.3,5.5c-0.2-0.2-0.4-0.2-0.6,0C3.6,5.7,3.6,6,3.8,6.1l1.8,1.8
		C5.7,8,5.8,8,5.9,8c0,0,0,0,0,0C6,8,6.1,8,6.2,7.9l4.3-4.5c0.2-0.2,0.2-0.4,0-0.6C10.4,2.7,10.1,2.7,10,2.8z"/>
	<path id="XMLID_130_" class="st0" d="M1.7,10.4c0.3,0.3,0.7,0.5,1.1,0.5c0,0,0,0,0,0l6.1-0.1c0.4,0,0.8-0.2,1.1-0.5
		c0.3-0.3,0.5-0.7,0.4-1.1l-0.1-3.7c0-0.2-0.2-0.4-0.4-0.4c-0.2,0-0.4,0.2-0.4,0.4l0.1,3.7c0,0.2-0.1,0.4-0.2,0.5
		C9.3,9.9,9.1,10,8.9,10L2.8,10C2.6,10,2.4,10,2.2,9.8C2.1,9.7,2,9.5,2,9.3l0-6.2c0-0.4,0.3-0.8,0.8-0.8l6.6-0.1
		c0.2,0,0.4-0.2,0.4-0.4S9.5,1.5,9.3,1.5L2.7,1.5c-0.9,0-1.6,0.7-1.6,1.6l0,6.2C1.2,9.7,1.4,10.1,1.7,10.4z"/>
	<path id="XMLID_129_" class="st0" d="M15.6,5.5c-0.2-0.2-0.4-0.2-0.6,0c-0.2,0.2-0.2,0.4,0,0.6l1.8,1.8C17,8,17.1,8,17.2,8
		c0,0,0,0,0,0c0.1,0,0.2,0,0.3-0.1l4.3-4.5C22,3.2,22,3,21.8,2.8c-0.2-0.2-0.4-0.2-0.6,0L17.2,7L15.6,5.5z"/>
	<path id="XMLID_128_" class="st0" d="M13,10.4c0.3,0.3,0.7,0.5,1.1,0.5c0,0,0,0,0,0l6.1-0.1c0.4,0,0.8-0.2,1.1-0.5
		c0.3-0.3,0.5-0.7,0.4-1.1l-0.1-3.7c0-0.2-0.2-0.4-0.4-0.4c-0.2,0-0.4,0.2-0.4,0.4L21,9.2c0,0.2-0.1,0.4-0.2,0.5
		c-0.1,0.1-0.3,0.2-0.5,0.2L14.1,10c-0.2,0-0.4-0.1-0.5-0.2c-0.1-0.1-0.2-0.3-0.2-0.5l0-6.2c0-0.4,0.3-0.8,0.8-0.8l6.6-0.1
		c0.2,0,0.4-0.2,0.4-0.4c0-0.2-0.2-0.4-0.4-0.4c0,0,0,0,0,0L14,1.5c-0.9,0-1.6,0.7-1.6,1.6l0,6.2C12.5,9.7,12.7,10.1,13,10.4z"/>
	<path id="XMLID_127_" class="st0" d="M21.2,13.5l-4.1,4.2l-1.5-1.5c-0.2-0.2-0.4-0.2-0.6,0c-0.2,0.2-0.2,0.4,0,0.6l1.8,1.8
		c0.1,0.1,0.2,0.1,0.3,0.1c0,0,0,0,0,0c0.1,0,0.2,0,0.3-0.1l4.3-4.5c0.2-0.2,0.2-0.4,0-0.6C21.7,13.4,21.4,13.4,21.2,13.5z"/>
	<path id="XMLID_126_" class="st0" d="M21.3,15.8c-0.2,0-0.4,0.2-0.4,0.4l0.1,3.7c0,0.2-0.1,0.4-0.2,0.5c-0.1,0.1-0.3,0.2-0.5,0.2
		l-6.1,0.1c-0.2,0-0.4-0.1-0.5-0.2c-0.1-0.1-0.2-0.3-0.2-0.5l0-6.2c0-0.4,0.3-0.8,0.8-0.8l6.6-0.1c0.2,0,0.4-0.2,0.4-0.4
		c0-0.2-0.2-0.4-0.4-0.4c0,0,0,0,0,0L14,12.2c-0.9,0-1.6,0.7-1.6,1.6l0,6.2c0,0.4,0.2,0.8,0.5,1.1c0.3,0.3,0.7,0.5,1.1,0.5
		c0,0,0,0,0,0l6.1-0.1c0.4,0,0.8-0.2,1.1-0.5c0.3-0.3,0.5-0.7,0.4-1.1l-0.1-3.7C21.7,15.9,21.5,15.7,21.3,15.8z"/>
	<path id="XMLID_125_" class="st0" d="M9.9,13.5l-4.1,4.2l-1.5-1.5c-0.2-0.2-0.4-0.2-0.6,0c-0.2,0.2-0.2,0.4,0,0.6l1.8,1.8
		c0.1,0.1,0.2,0.1,0.3,0.1c0,0,0,0,0,0c0.1,0,0.2,0,0.3-0.1l4.3-4.5c0.2-0.2,0.2-0.4,0-0.6C10.3,13.4,10,13.4,9.9,13.5z"/>
	<path id="XMLID_124_" class="st0" d="M9.9,15.8c-0.2,0-0.4,0.2-0.4,0.4l0.1,3.7c0,0.2-0.1,0.4-0.2,0.5c-0.1,0.1-0.3,0.2-0.5,0.2
		l-6.1,0.1c-0.2,0-0.4-0.1-0.5-0.2C2,20.4,1.9,20.2,1.9,20l0-6.2c0-0.4,0.3-0.8,0.8-0.8L9.2,13c0.2,0,0.4-0.2,0.4-0.4
		c0-0.2-0.2-0.4-0.4-0.4l-6.6,0.1c-0.9,0-1.6,0.7-1.6,1.6l0,6.2c0,0.4,0.2,0.8,0.5,1.1c0.3,0.3,0.7,0.5,1.1,0.5c0,0,0,0,0,0l6.1-0.1
		c0.4,0,0.8-0.2,1.1-0.5c0.3-0.3,0.5-0.7,0.4-1.1l-0.1-3.7C10.3,15.9,10.1,15.7,9.9,15.8z"/>
</g>
</svg>
