<?xml version="1.0" encoding="utf-8"?>
<!-- Generator: Adobe Illustrator 19.0.0, SVG Export Plug-In . SVG Version: 6.00 Build 0)  -->
<svg version="1.1" id="Layer_1" xmlns="http://www.w3.org/2000/svg" xmlns:xlink="http://www.w3.org/1999/xlink" x="0px" y="0px"
	 viewBox="0 0 23 23" style="enable-background:new 0 0 23 23;" xml:space="preserve">
<style type="text/css">
	.st0{fill:#791286;}
</style>
<path id="XMLID_255_" class="st0" d="M20,1.6c-0.2-0.2-0.4-0.2-0.6,0l-1,1c-0.4-0.1-0.9,0-1.3,0.4c-0.4,0.4-0.5,0.9-0.4,1.3
	l-0.2,0.2c-0.4-0.1-0.9,0-1.3,0.4c-0.2,0.2-0.4,0.5-0.4,0.8H3.3c-0.2,0-0.4,0.2-0.4,0.4c0,0.1,0.1,0.3,0.2,0.3c0,0,0,0,0,0.1L4.6,8
	c0,0,0,0,0,0l5.8,5.8v6.7c0,0,0,0.1,0,0.1H6.7c-0.2,0-0.4,0.2-0.4,0.4s0.2,0.4,0.4,0.4h8.4c0.2,0,0.4-0.2,0.4-0.4s-0.2-0.4-0.4-0.4
	h-3.8c0,0,0-0.1,0-0.1v-6.7L17.1,8c0,0,0,0,0,0l1.5-1.5c0,0,0,0,0-0.1c0.1-0.1,0.2-0.2,0.2-0.3c0-0.2-0.2-0.4-0.4-0.4h-1.3
	c0-0.2,0-0.4,0-0.6l0.2-0.2c0.4,0.1,0.9,0,1.3-0.4C19,4.1,19.1,3.6,19,3.2l1-1C20.1,2.1,20.1,1.8,20,1.6z M16.7,7.3H5.1L4.3,6.5
	h13.2L16.7,7.3z M10.9,13.1l-5-5h9.9L10.9,13.1z"/>
</svg>
