<?xml version="1.0" encoding="utf-8"?>
<!-- Generator: Adobe Illustrator 19.0.0, SVG Export Plug-In . SVG Version: 6.00 Build 0)  -->
<svg version="1.1" id="Layer_1" xmlns="http://www.w3.org/2000/svg" xmlns:xlink="http://www.w3.org/1999/xlink" x="0px" y="0px"
	 viewBox="0 0 23 23" style="enable-background:new 0 0 23 23;" xml:space="preserve">
<style type="text/css">
	.st0{fill:#7E5243;}
</style>
<g id="XMLID_495_">
	<path id="XMLID_499_" class="st0" d="M16.7,16.6c0.3-0.1,0.9-0.3,1.8-0.8c0.8-0.4,1.8-1.6,2-2.8c0.1-0.8-0.1-1.5-0.6-2.1
		c-0.8-0.8-1.7-0.6-2.4-0.3l0.3-2.3v0c0-0.2,0-0.3-0.1-0.4c-0.1-0.1-0.3-0.2-0.4-0.2H15h-0.2H5.1C4.9,7.8,4.8,7.9,4.7,8
		C4.5,8.1,4.5,8.3,4.5,8.4l0.9,6.7c0,0,0,0,0,0l0.4,3.3c0,0.2,0.1,0.4,0.2,0.6H2.9c-0.2,0-0.3,0.1-0.4,0.3c-0.1,0.2,0,0.3,0.1,0.5
		l1.2,0.9c0.5,0.4,1.1,0.6,1.7,0.6h11.3c0.6,0,1.2-0.2,1.7-0.6l1.2-0.9c0.1-0.1,0.2-0.3,0.1-0.5c-0.1-0.2-0.2-0.3-0.4-0.3h-3.3
		c0.1-0.2,0.2-0.4,0.2-0.6L16.7,16.6z M7.1,19.1c-0.3-0.2-0.4-0.4-0.5-0.7l-0.5-3.8c0,0,0,0,0-0.1L5.4,8.6h9.4H15h1.9l-1.3,9.8
		c0,0.3-0.2,0.6-0.5,0.7H7.1z M19.3,11.6c0.4,0.4,0.5,0.8,0.4,1.3c-0.2,0.9-0.9,1.9-1.6,2.2c-0.6,0.3-1,0.5-1.4,0.6l0.5-4
		C17.6,11.5,18.6,10.9,19.3,11.6z M18,20.1c-0.4,0.3-0.8,0.4-1.2,0.4H5.5c-0.4,0-0.8-0.1-1.2-0.4l-0.2-0.2h14.2L18,20.1z"/>
	<path id="XMLID_175_" class="st0" d="M10.7,4.1c0.3,0.2,0,0.9-0.1,1.2c-0.1,0.2,0,0.4,0.2,0.6c0.1,0,0.1,0,0.2,0
		c0.1,0,0.3-0.1,0.4-0.2C11.6,5.1,12,4,11.2,3.5c-0.3-0.2,0-0.9,0.1-1.2c0.1-0.2,0-0.4-0.2-0.6c-0.2-0.1-0.4,0-0.6,0.2
		C10.3,2.5,9.9,3.6,10.7,4.1z"/>
	<path id="XMLID_174_" class="st0" d="M14.4,5.1c0.3,0.2,0,0.9-0.1,1.2c-0.1,0.2,0,0.4,0.2,0.6c0.1,0,0.1,0,0.2,0
		c0.1,0,0.3-0.1,0.4-0.2c0.3-0.6,0.6-1.7-0.1-2.3c-0.3-0.2,0-0.9,0.1-1.2c0.1-0.2,0-0.4-0.2-0.6c-0.2-0.1-0.4,0-0.6,0.2
		C14,3.4,13.7,4.5,14.4,5.1z"/>
	<path id="XMLID_173_" class="st0" d="M6.9,5.1c0.3,0.2,0,0.9-0.1,1.2C6.7,6.4,6.8,6.7,7,6.8c0.1,0,0.1,0,0.2,0
		c0.1,0,0.3-0.1,0.4-0.2C7.8,6,8.2,4.9,7.4,4.4c-0.3-0.2,0-0.9,0.1-1.2c0.1-0.2,0-0.4-0.2-0.6c-0.2-0.1-0.4,0-0.6,0.2
		C6.5,3.4,6.1,4.5,6.9,5.1z"/>
</g>
</svg>
