<?xml version="1.0" encoding="utf-8"?>
<!-- Generator: Adobe Illustrator 19.0.0, SVG Export Plug-In . SVG Version: 6.00 Build 0)  -->
<svg version="1.1" id="Layer_1" xmlns="http://www.w3.org/2000/svg" xmlns:xlink="http://www.w3.org/1999/xlink" x="0px" y="0px"
	 viewBox="0 0 23 23" style="enable-background:new 0 0 23 23;" xml:space="preserve">
<style type="text/css">
	.st0{fill:#00A832;}
</style>
<g id="XMLID_238_">
	<path id="XMLID_145_" class="st0" d="M8.8,17.3c-0.1-0.2-0.4-0.3-0.6-0.2c-0.2,0.1-0.3,0.4-0.2,0.6l0.6,1c-2.1-0.8-3.8-2.6-4.6-4.8
		c-0.1-0.2-0.3-0.3-0.5-0.3c-0.2,0.1-0.3,0.3-0.3,0.5c0.4,1.2,1.1,2.4,2.1,3.3c0.8,0.8,1.8,1.5,2.9,1.9L7.5,20
		c-0.2,0.1-0.3,0.4-0.2,0.6c0.1,0.1,0.2,0.2,0.4,0.2c0.1,0,0.1,0,0.2-0.1l1.8-1c0.1-0.1,0.2-0.1,0.2-0.3s0-0.2,0-0.3L8.8,17.3z"/>
	<path id="XMLID_144_" class="st0" d="M14.8,6.8C14.9,7,15.2,7.1,15.3,7c0.2-0.1,0.2-0.4,0.1-0.6l-0.6-1c2.2,0.7,4,2.4,4.9,4.5
		c0.1,0.2,0.3,0.3,0.5,0.2c0.2-0.1,0.3-0.3,0.2-0.5c-0.5-1.2-1.3-2.3-2.3-3.2c-0.9-0.8-1.9-1.4-3-1.7L16,4.1
		c0.2-0.1,0.2-0.4,0.1-0.6c-0.1-0.1-0.2-0.2-0.4-0.2c-0.1,0-0.1,0-0.2,0.1l-1.7,1.1c-0.1,0.1-0.2,0.2-0.2,0.3c0,0.1,0,0.2,0.1,0.3
		L14.8,6.8z"/>
	<path id="XMLID_143_" class="st0" d="M7.2,10.3V9.8c0.8-0.2,1.3-0.8,1.3-1.6c0-0.9-0.8-1.7-1.7-1.7C6.3,6.4,5.9,6,5.9,5.6
		s0.4-0.9,0.9-0.9c0.3,0,0.6,0.2,0.8,0.5c0.1,0.2,0.3,0.3,0.5,0.2C8.3,5.3,8.4,5,8.3,4.8C8.1,4.4,7.6,4,7.2,3.9V3.4
		c0-0.2-0.2-0.4-0.4-0.4c-0.2,0-0.4,0.2-0.4,0.4v0.5C5.7,4.1,5.1,4.8,5.1,5.6c0,0.9,0.8,1.7,1.7,1.7c0.5,0,0.9,0.4,0.9,0.9
		C7.7,8.6,7.3,9,6.8,9C6.5,9,6.2,8.8,6,8.5C5.9,8.3,5.7,8.3,5.5,8.4C5.3,8.5,5.2,8.7,5.3,8.9C5.5,9.4,6,9.7,6.4,9.8v0.5
		c0,0.2,0.2,0.4,0.4,0.4C7,10.6,7.2,10.5,7.2,10.3z"/>
	<path id="XMLID_142_" class="st0" d="M17.4,18.1c-0.3,0.2-0.7,0.3-1.1,0.3c-0.7,0-1-0.3-1.1-1.2h0.7c0.2,0,0.4-0.2,0.4-0.4
		c0-0.2-0.2-0.4-0.4-0.4h-0.8c0-0.1,0-0.1,0-0.2c0-0.1,0-0.1,0-0.2h0.8c0.2,0,0.4-0.2,0.4-0.4s-0.2-0.4-0.4-0.4h-0.7
		c0.1-0.9,0.4-1.2,1.1-1.2c0.4,0,0.7,0.1,1.1,0.3c0.2,0.1,0.4,0,0.6-0.2c0.1-0.2,0-0.4-0.2-0.6c-0.4-0.2-0.9-0.4-1.5-0.4
		c-1.5,0-1.8,1-2,2H14c-0.2,0-0.4,0.2-0.4,0.4S13.8,16,14,16h0.3c0,0.1,0,0.2,0,0.2s0,0.1,0,0.2H14c-0.2,0-0.4,0.2-0.4,0.4
		c0,0.2,0.2,0.4,0.4,0.4h0.4c0.1,1,0.5,2,2,2c0.5,0,1-0.1,1.5-0.4c0.2-0.1,0.3-0.4,0.2-0.6C17.9,18.1,17.6,18,17.4,18.1z"/>
	<path id="XMLID_251_" class="st0" d="M16.2,10.5c-3.2,0-5.7,2.6-5.7,5.7s2.6,5.7,5.7,5.7s5.7-2.6,5.7-5.7S19.3,10.5,16.2,10.5z
		 M16.2,21.1c-2.7,0-4.9-2.2-4.9-4.9s2.2-4.9,4.9-4.9s4.9,2.2,4.9,4.9S18.9,21.1,16.2,21.1z"/>
	<path id="XMLID_241_" class="st0" d="M12.5,6.8c0-3.2-2.6-5.7-5.7-5.7S1.1,3.7,1.1,6.8c0,3.2,2.6,5.7,5.7,5.7S12.5,10,12.5,6.8z
		 M1.9,6.8c0-2.7,2.2-4.9,4.9-4.9s4.9,2.2,4.9,4.9c0,2.7-2.2,4.9-4.9,4.9S1.9,9.5,1.9,6.8z"/>
</g>
</svg>
