<?xml version="1.0" encoding="utf-8"?>
<!-- Generator: Adobe Illustrator 19.0.0, SVG Export Plug-In . SVG Version: 6.00 Build 0)  -->
<svg version="1.1" id="Layer_1" xmlns="http://www.w3.org/2000/svg" xmlns:xlink="http://www.w3.org/1999/xlink" x="0px" y="0px"
	 viewBox="0 0 23 23" style="enable-background:new 0 0 23 23;" xml:space="preserve">
<style type="text/css">
	.st0{fill:#FF9F3F;}
</style>
<g id="XMLID_246_">
	<path id="XMLID_259_" class="st0" d="M14.9,7.9C14,7,12.7,6.4,11.4,6.4C10,6.4,8.7,7,7.8,7.9c-0.9,0.9-1.5,2.2-1.5,3.6
		c0,1.4,0.6,2.7,1.5,3.6c0.9,0.9,2.2,1.5,3.6,1.5c1.4,0,2.7-0.6,3.6-1.5c0.9-0.9,1.5-2.2,1.5-3.6C16.4,10.1,15.9,8.8,14.9,7.9z
		 M14,14.1c-0.7,0.7-1.6,1.1-2.6,1.1c-1,0-1.9-0.4-2.6-1.1c-0.7-0.7-1.1-1.6-1.1-2.6c0-1,0.4-1.9,1.1-2.6c0.7-0.7,1.6-1.1,2.6-1.1
		c1,0,1.9,0.4,2.6,1.1s1.1,1.6,1.1,2.6C15,12.5,14.6,13.4,14,14.1z"/>
	<circle id="XMLID_153_" class="st0" cx="3.3" cy="11.5" r="1.2"/>
	<circle id="XMLID_152_" class="st0" cx="5.8" cy="17.2" r="1"/>
	<circle id="XMLID_151_" class="st0" cx="11.4" cy="19.3" r="1.2"/>
	<circle id="XMLID_150_" class="st0" cx="5.8" cy="6.1" r="1"/>
	<circle id="XMLID_149_" class="st0" cx="19.7" cy="11.5" r="1.2"/>
	<circle id="XMLID_148_" class="st0" cx="17.4" cy="6.1" r="1"/>
	<circle id="XMLID_147_" class="st0" cx="17.4" cy="17.2" r="1"/>
	<circle id="XMLID_146_" class="st0" cx="11.4" cy="3.7" r="1.2"/>
</g>
</svg>
