<?xml version="1.0" encoding="utf-8"?>
<!-- Generator: Adobe Illustrator 19.0.0, SVG Export Plug-In . SVG Version: 6.00 Build 0)  -->
<svg version="1.1" id="Layer_1" xmlns="http://www.w3.org/2000/svg" xmlns:xlink="http://www.w3.org/1999/xlink" x="0px" y="0px"
	 viewBox="0 0 23 23" style="enable-background:new 0 0 23 23;" xml:space="preserve">
<style type="text/css">
	.st0{fill:#EE7717;}
</style>
<g id="XMLID_219_">
	<path id="XMLID_230_" class="st0" d="M21.7,16.5c-0.1-0.1-0.2-0.2-0.4-0.2h-0.5v-0.9c0,0,0-0.1,0-0.1c0.5-0.2,0.8-0.6,0.8-1.1
		c0-0.5-0.3-0.8-0.6-1.1c0.2-0.2,0.3-0.5,0.3-0.8c0-0.4-0.2-0.8-0.5-1c0.1-0.2,0.1-0.3,0.1-0.5c0-0.2,0-0.3-0.1-0.4
		c0.3-0.1,0.5-0.2,0.7-0.4c0.2-0.3,0.3-0.7,0.3-1c-0.4-2.3-2.2-7.6-10.3-7.6c-8.1,0-9.9,5.3-10.3,7.6c-0.1,0.4,0,0.8,0.3,1
		c0.2,0.2,0.4,0.3,0.7,0.4c-0.1,0.1-0.1,0.3-0.1,0.4c0,0.2,0.1,0.4,0.1,0.5c-0.3,0.2-0.5,0.6-0.5,1c0,0.3,0.1,0.5,0.3,0.8
		c-0.4,0.2-0.6,0.6-0.6,1.1c0,0.5,0.4,1,0.8,1.1c0,0,0,0.1,0,0.1v0.9H1.6c-0.1,0-0.3,0.1-0.4,0.2c-0.1,0.1-0.1,0.3,0,0.4l0.5,0.9
		c1.2,2.3,3.7,3.7,6.4,3.7h6.7c2.7,0,5.2-1.4,6.4-3.7l0.5-0.9C21.8,16.8,21.8,16.7,21.7,16.5z M17.7,16.3c0.1-0.1,0.2-0.1,0.2-0.2
		l0.6-0.6l1.6-0.1l0.1,0.9H17.7z M16,13c-0.1,0-0.2,0-0.4,0H3.3l-0.2-0.1c-0.1,0-0.1,0-0.2,0c-0.2,0-0.4-0.2-0.4-0.4
		c0-0.2,0.2-0.4,0.4-0.4C3,12,3.1,12.1,3.3,12.1h16.4c0.2,0,0.3,0,0.5-0.1c0.2,0,0.4,0.2,0.4,0.4c0,0.2-0.2,0.4-0.4,0.4
		c-0.1,0-0.1,0-0.2,0L19.7,13H16z M2.9,10.8c0-0.2,0.2-0.4,0.4-0.4h16.4c0.2,0,0.4,0.2,0.4,0.4c0,0.1-0.1,0.2-0.2,0.3H3.1
		C3,11.1,2.9,11,2.9,10.8z M2,9.1C2.4,7,4,2.2,11.5,2.2C19,2.2,20.6,7,21,9.1c0,0.1,0,0.3-0.1,0.4c-0.1,0.1-0.2,0.2-0.3,0.2h-0.8
		H3.3H2.5c-0.1,0-0.3-0.1-0.3-0.2C2,9.3,2,9.2,2,9.1z M2.5,13.8h0.6L3.4,14c0.7,0.4,1.6,0.4,2.4,0c0.5-0.2,1-0.2,1.5,0l0.5,0.2
		c0.7,0.3,1.4,0.3,2.1,0l0.4-0.2c0.5-0.2,1-0.2,1.4,0l0.7,0.3c0.3,0.1,0.7,0.2,1,0.2c0.3,0,0.6-0.1,0.9-0.2l1-0.4
		c0.1-0.1,0.3-0.1,0.4-0.1H16c0.2,0,0.4,0.1,0.5,0.1l0.5,0.2c0.7,0.3,1.5,0.3,2.2-0.1l0.6-0.3h0.6c0.2,0,0.4,0.2,0.4,0.4
		c0,0.2-0.2,0.4-0.4,0.4h-2.1c-0.1,0-0.2,0-0.3,0.1l-0.8,0.9c-0.3,0.3-0.7,0.5-1.1,0.5c-0.4,0-0.8-0.2-1.1-0.5l-0.7-0.8
		c-0.1-0.1-0.2-0.1-0.3-0.1H2.5c-0.2,0-0.4-0.2-0.4-0.4C2.1,14,2.3,13.8,2.5,13.8z M2.9,15.5h11.1l0.5,0.6c0.1,0.1,0.2,0.2,0.3,0.2
		H2.9L2.9,15.5z M20.5,17.5c-1.1,2-3.3,3.3-5.7,3.3H8.1c-2.4,0-4.6-1.3-5.7-3.3l-0.2-0.3h0.6h17.3h0.5L20.5,17.5z"/>
	<circle id="XMLID_26_" class="st0" cx="13.3" cy="5.3" r="0.5"/>
	<circle id="XMLID_25_" class="st0" cx="11.5" cy="7.3" r="0.5"/>
	<circle id="XMLID_24_" class="st0" cx="9.8" cy="5.3" r="0.5"/>
	<circle id="XMLID_23_" class="st0" cx="8" cy="7.3" r="0.5"/>
	<circle id="XMLID_22_" class="st0" cx="18.5" cy="7.3" r="0.5"/>
	<circle id="XMLID_21_" class="st0" cx="15" cy="7.3" r="0.5"/>
	<circle id="XMLID_20_" class="st0" cx="6.4" cy="5.6" r="0.5"/>
	<circle id="XMLID_19_" class="st0" cx="16.8" cy="5.6" r="0.5"/>
	<circle id="XMLID_18_" class="st0" cx="4.5" cy="7.3" r="0.5"/>
</g>
</svg>
