<?xml version="1.0" encoding="utf-8"?>
<!-- Generator: Adobe Illustrator 19.0.0, SVG Export Plug-In . SVG Version: 6.00 Build 0)  -->
<svg version="1.1" id="Layer_1" xmlns="http://www.w3.org/2000/svg" xmlns:xlink="http://www.w3.org/1999/xlink" x="0px" y="0px"
	 viewBox="0 0 23 23" style="enable-background:new 0 0 23 23;" xml:space="preserve">
<style type="text/css">
	.st0{fill:#004C9F;}
</style>
<g id="XMLID_232_">
	<path id="XMLID_249_" class="st0" d="M3.7,8.7h15.7c0.2,0,0.3-0.1,0.4-0.3c0.1-0.2,0-0.3-0.1-0.5l-7.8-6.1c-0.1-0.1-0.4-0.1-0.5,0
		L3.4,7.9C3.3,8.1,3.2,8.2,3.3,8.4C3.3,8.6,3.5,8.7,3.7,8.7z M11.5,2.7l6.6,5.2H4.9L11.5,2.7z"/>
	<path id="XMLID_245_" class="st0" d="M15.2,6.5l-3.5-2.7c-0.1-0.1-0.4-0.1-0.5,0L7.8,6.5C7.6,6.6,7.6,6.8,7.6,7
		C7.7,7.2,7.8,7.3,8,7.3h7c0.2,0,0.3-0.1,0.4-0.3C15.4,6.8,15.4,6.6,15.2,6.5z M9.2,6.4l2.3-1.8l2.3,1.8H9.2z"/>
	<path id="XMLID_98_" class="st0" d="M20.4,20.4H2.6c-0.2,0-0.4,0.2-0.4,0.4s0.2,0.4,0.4,0.4h17.8c0.2,0,0.4-0.2,0.4-0.4
		S20.6,20.4,20.4,20.4z"/>
	<path id="XMLID_97_" class="st0" d="M3.7,19.7h15.7c0.2,0,0.4-0.2,0.4-0.4c0-0.2-0.2-0.4-0.4-0.4H3.7c-0.2,0-0.4,0.2-0.4,0.4
		C3.3,19.5,3.4,19.7,3.7,19.7z"/>
	<path id="XMLID_96_" class="st0" d="M4.8,9.6v8.3c0,0.2,0.2,0.4,0.4,0.4c0.2,0,0.4-0.2,0.4-0.4V9.6c0-0.2-0.2-0.4-0.4-0.4
		C5,9.2,4.8,9.4,4.8,9.6z"/>
	<path id="XMLID_95_" class="st0" d="M7.3,9.6v8.3c0,0.2,0.2,0.4,0.4,0.4s0.4-0.2,0.4-0.4V9.6c0-0.2-0.2-0.4-0.4-0.4
		S7.3,9.4,7.3,9.6z"/>
	<path id="XMLID_94_" class="st0" d="M9.8,9.6v8.3c0,0.2,0.2,0.4,0.4,0.4c0.2,0,0.4-0.2,0.4-0.4V9.6c0-0.2-0.2-0.4-0.4-0.4
		C10,9.2,9.8,9.4,9.8,9.6z"/>
	<path id="XMLID_93_" class="st0" d="M12.3,9.6v8.3c0,0.2,0.2,0.4,0.4,0.4c0.2,0,0.4-0.2,0.4-0.4V9.6c0-0.2-0.2-0.4-0.4-0.4
		C12.5,9.2,12.3,9.4,12.3,9.6z"/>
	<path id="XMLID_92_" class="st0" d="M14.9,9.6v8.3c0,0.2,0.2,0.4,0.4,0.4c0.2,0,0.4-0.2,0.4-0.4V9.6c0-0.2-0.2-0.4-0.4-0.4
		C15,9.2,14.9,9.4,14.9,9.6z"/>
	<path id="XMLID_91_" class="st0" d="M17.4,9.6v8.3c0,0.2,0.2,0.4,0.4,0.4c0.2,0,0.4-0.2,0.4-0.4V9.6c0-0.2-0.2-0.4-0.4-0.4
		C17.5,9.2,17.4,9.4,17.4,9.6z"/>
</g>
</svg>
