<?xml version="1.0" encoding="utf-8"?>
<!-- Generator: Adobe Illustrator 19.0.0, SVG Export Plug-In . SVG Version: 6.00 Build 0)  -->
<svg version="1.1" id="Layer_1" xmlns="http://www.w3.org/2000/svg" xmlns:xlink="http://www.w3.org/1999/xlink" x="0px" y="0px"
	 viewBox="0 0 23 23" style="enable-background:new 0 0 23 23;" xml:space="preserve">
<style type="text/css">
	.st0{fill:#63CFFF;}
</style>
<g id="XMLID_221_">
	<path id="XMLID_57_" class="st0" d="M22.1,8.5c-0.1-0.2-0.4-0.2-0.6-0.1l-2.9,2.4l-2.5-3.5c0,0,0,0,0,0c0,0-0.1-0.1-0.1-0.1
		c0,0,0,0,0,0c-0.1,0-0.1,0-0.2,0l-5-0.2c-0.1,0-0.2,0-0.3,0.1L7.6,9.9c-0.2,0.2-0.2,0.4,0,0.6c0.1,0.1,0.2,0.1,0.3,0.1
		c0.1,0,0.2,0,0.3-0.1L11,7.8l4,0.1l-3,3.8l-3.8,2.4l-3.4-2C4.6,12,4.3,12,4.2,12.2c-0.1,0.2,0,0.4,0.1,0.6L8,14.9
		C8,15,8.1,15,8.2,15c0.1,0,0.2,0,0.2-0.1l3.7-2.3l1.4,3.5l-1.6,3.5c-0.1,0.2,0,0.4,0.2,0.5c0.1,0,0.1,0,0.2,0
		c0.2,0,0.3-0.1,0.4-0.2l1.7-3.7c0-0.1,0.1-0.2,0-0.3l-1.6-3.9l3-3.9l2.4,3.4c0.1,0.1,0.2,0.2,0.3,0.2c0.1,0,0.2,0,0.3-0.1L22,9.1
		C22.2,8.9,22.2,8.7,22.1,8.5z"/>
	<path id="XMLID_227_" class="st0" d="M18.3,7.5c1.3,0,2.4-1.1,2.4-2.4c0-1.3-1.1-2.4-2.4-2.4s-2.4,1.1-2.4,2.4
		C15.9,6.4,17,7.5,18.3,7.5z M18.3,3.5c0.9,0,1.6,0.7,1.6,1.6c0,0.9-0.7,1.6-1.6,1.6S16.8,6,16.8,5.1C16.8,4.2,17.5,3.5,18.3,3.5z"
		/>
	<path id="XMLID_54_" class="st0" d="M3.5,5.5h3.9c0.2,0,0.4-0.2,0.4-0.4S7.7,4.7,7.4,4.7H3.5c-0.2,0-0.4,0.2-0.4,0.4
		S3.3,5.5,3.5,5.5z"/>
	<path id="XMLID_53_" class="st0" d="M5.6,10.2c0-0.2-0.2-0.4-0.4-0.4H1.2c-0.2,0-0.4,0.2-0.4,0.4c0,0.2,0.2,0.4,0.4,0.4h3.9
		C5.4,10.6,5.6,10.4,5.6,10.2z"/>
	<path id="XMLID_52_" class="st0" d="M5.8,16H1.9c-0.2,0-0.4,0.2-0.4,0.4s0.2,0.4,0.4,0.4h3.9c0.2,0,0.4-0.2,0.4-0.4S6,16,5.8,16z"
		/>
</g>
</svg>
