<?xml version="1.0" encoding="utf-8"?>
<!-- Generator: Adobe Illustrator 19.0.0, SVG Export Plug-In . SVG Version: 6.00 Build 0)  -->
<svg version="1.1" id="Layer_1" xmlns="http://www.w3.org/2000/svg" xmlns:xlink="http://www.w3.org/1999/xlink" x="0px" y="0px"
	 viewBox="0 0 23 23" style="enable-background:new 0 0 23 23;" xml:space="preserve">
<style type="text/css">
	.st0{fill:#CBB198;}
</style>
<g id="XMLID_220_">
	<path id="XMLID_226_" class="st0" d="M11.7,4.5V1.9c0-0.2-0.2-0.4-0.4-0.4s-0.4,0.2-0.4,0.4v2.6C7.5,4.7,4.6,6.9,3.4,9.9
		c0,0,0,0,0,0c0,0,0,0,0,0.1c-0.4,0.9-0.6,1.9-0.6,3c0,4.7,3.8,8.5,8.5,8.5c4.7,0,8.5-3.8,8.5-8.5C19.8,8.5,16.2,4.7,11.7,4.5z
		 M18.6,15.4l-0.2,0.1c-0.9,0.3-1.9,0.5-2.9,0.7c0.3-1,0.5-2,0.5-3.1c0-0.6-0.1-1.1-0.1-1.7c0.7-0.1,1.4-0.3,2.1-0.4
		c0,0,0.1,0,0.1,0l0.6-0.2c0.2,0.7,0.4,1.5,0.4,2.3C18.9,13.8,18.8,14.6,18.6,15.4z M3.6,13c0-0.8,0.1-1.6,0.4-2.4l0.5,0.2
		c0.7,0.2,1.4,0.4,2.2,0.5c-0.1,0.5-0.1,1-0.1,1.6c0,1.1,0.2,2.2,0.5,3.2c-0.8-0.1-1.6-0.3-2.3-0.5L4,15.3C3.7,14.5,3.6,13.8,3.6,13
		z M7.4,12.9c0-0.5,0.1-1,0.1-1.4c1.1,0.2,2.2,0.2,3.3,0.2v4.7c-1,0-1.9-0.1-2.9-0.2C7.6,15.2,7.4,14.1,7.4,12.9z M11.7,5.7
		c1.6,1.3,2.7,3,3.2,4.9c-1.1,0.2-2.1,0.2-3.2,0.3V5.7z M10.9,10.9c-1.1,0-2.2-0.1-3.2-0.2C8.2,8.8,9.3,7,10.9,5.8V10.9z M10.9,17.3
		v2.9c-1.1-0.8-1.9-1.9-2.5-3C9.2,17.2,10,17.3,10.9,17.3z M11.7,17.3c0.8,0,1.7-0.1,2.5-0.2c-0.6,1.2-1.4,2.2-2.5,3.1V17.3z
		 M11.7,16.5v-4.7c1.1,0,2.2-0.1,3.3-0.3c0.1,0.5,0.1,1,0.1,1.5c0,1.1-0.2,2.2-0.6,3.2C13.6,16.4,12.6,16.4,11.7,16.5z M18.3,9.9
		c-0.8,0.2-1.7,0.4-2.6,0.6c-0.5-1.9-1.5-3.7-3.1-5.1C15.2,5.9,17.3,7.6,18.3,9.9z M10,5.5c-1.5,1.4-2.6,3.1-3.1,5.1
		c-0.7-0.1-1.4-0.3-2.1-0.5L4.3,9.9C5.3,7.6,7.4,5.9,10,5.5z M4.4,16.3l0.2,0.1c0.9,0.3,1.9,0.5,2.9,0.7c0.6,1.3,1.4,2.5,2.5,3.5
		C7.5,20.1,5.4,18.5,4.4,16.3z M12.6,20.5c1.1-1,2-2.2,2.6-3.6c0.9-0.1,1.9-0.3,2.8-0.6c0,0,0.1,0,0.1,0l0.1,0
		C17.1,18.5,15,20.1,12.6,20.5z"/>
	<path id="XMLID_38_" class="st0" d="M5,4.2c0.1,0,0.1,0,0.2,0L5.5,4l0.1,0.3C5.7,4.5,5.8,4.6,6,4.6c0.1,0,0.1,0,0.2,0
		C6.3,4.4,6.4,4.2,6.3,4L6.2,3.7l0.3-0.1C6.7,3.4,6.8,3.2,6.7,3C6.6,2.8,6.4,2.7,6.2,2.8L5.9,2.9L5.7,2.6C5.6,2.4,5.4,2.3,5.2,2.4
		C5,2.5,4.9,2.8,5,3l0.1,0.3L4.8,3.4C4.6,3.5,4.5,3.8,4.6,4C4.7,4.1,4.8,4.2,5,4.2z"/>
	<path id="XMLID_37_" class="st0" d="M19.3,19.7L19,19.9l-0.1-0.3c-0.1-0.2-0.3-0.3-0.5-0.2c-0.2,0.1-0.3,0.3-0.2,0.5l0.1,0.3
		L18,20.3c-0.2,0.1-0.3,0.3-0.2,0.5c0.1,0.1,0.2,0.2,0.4,0.2c0.1,0,0.1,0,0.2,0l0.3-0.1l0.1,0.3c0.1,0.1,0.2,0.2,0.4,0.2
		c0.1,0,0.1,0,0.2,0c0.2-0.1,0.3-0.3,0.2-0.5l-0.1-0.3l0.3-0.1c0.2-0.1,0.3-0.3,0.2-0.5C19.8,19.7,19.5,19.6,19.3,19.7z"/>
	<path id="XMLID_36_" class="st0" d="M3.1,6.3l0.1,0.2c0,0.1,0.2,0.2,0.3,0.2c0,0,0.1,0,0.1,0c0.1-0.1,0.2-0.2,0.1-0.4L3.6,6.1
		L3.8,6C4,5.9,4,5.7,4,5.6C3.9,5.4,3.7,5.4,3.6,5.4L3.4,5.5L3.3,5.3C3.2,5.2,3,5.1,2.9,5.2C2.7,5.2,2.7,5.4,2.7,5.6l0.1,0.2L2.6,5.9
		C2.5,5.9,2.4,6.1,2.5,6.3c0,0.1,0.2,0.2,0.3,0.2c0,0,0.1,0,0.1,0L3.1,6.3z"/>
	<path id="XMLID_35_" class="st0" d="M21.6,17.6c-0.1-0.1-0.2-0.2-0.4-0.1L21,17.6l-0.1-0.2c-0.1-0.1-0.2-0.2-0.4-0.1
		c-0.1,0.1-0.2,0.2-0.1,0.4l0.1,0.2l-0.2,0.1c-0.1,0.1-0.2,0.2-0.1,0.4c0,0.1,0.2,0.2,0.3,0.2c0,0,0.1,0,0.1,0l0.2-0.1l0.1,0.2
		c0,0.1,0.2,0.2,0.3,0.2c0,0,0.1,0,0.1,0c0.1-0.1,0.2-0.2,0.1-0.4l-0.1-0.2l0.2-0.1C21.6,17.9,21.7,17.8,21.6,17.6z"/>
</g>
</svg>
