<?xml version="1.0" encoding="utf-8"?>
<!-- Generator: Adobe Illustrator 19.0.0, SVG Export Plug-In . SVG Version: 6.00 Build 0)  -->
<svg version="1.1" id="Layer_1" xmlns="http://www.w3.org/2000/svg" xmlns:xlink="http://www.w3.org/1999/xlink" x="0px" y="0px"
	 viewBox="0 0 23 23" style="enable-background:new 0 0 23 23;" xml:space="preserve">
<style type="text/css">
	.st0{fill:#6B5ADE;}
</style>
<g id="XMLID_257_">
	<path id="XMLID_172_" class="st0" d="M11.2,6.8c-0.1-0.1-0.3-0.1-0.4,0l-0.5,0.5c-0.1,0.1-0.1,0.3,0,0.4l0.5,0.5
		c0.1,0.1,0.3,0.1,0.4,0l0.5-0.5c0.1-0.1,0.1-0.3,0-0.4L11.2,6.8z"/>
	<path id="XMLID_171_" class="st0" d="M13.4,9.1c-0.1-0.1-0.3-0.1-0.4,0l-0.5,0.5c-0.1,0.1-0.1,0.3,0,0.4l0.5,0.5
		c0.1,0.1,0.3,0.1,0.4,0l0.5-0.5c0.1-0.1,0.1-0.3,0-0.4L13.4,9.1z"/>
	<path id="XMLID_170_" class="st0" d="M15.7,11.3c-0.1-0.1-0.3-0.1-0.4,0l-0.5,0.5c-0.1,0.1-0.1,0.3,0,0.4l0.5,0.5
		c0.1,0.1,0.3,0.1,0.4,0l0.5-0.5c0.1-0.1,0.1-0.3,0-0.4L15.7,11.3z"/>
	<path id="XMLID_260_" class="st0" d="M21.7,8l-0.9-0.9c-0.4-0.4-1.1-0.5-1.7-0.2c-0.8,0.5-1.9,0.3-2.6-0.4
		c-0.7-0.7-0.8-1.7-0.4-2.6c0.3-0.6,0.2-1.2-0.2-1.7L15,1.3c-0.5-0.5-1.3-0.5-1.7,0L1.3,13.3C1.1,13.5,1,13.8,1,14.1
		c0,0.3,0.1,0.6,0.4,0.9l0.9,0.9c0.4,0.4,1.1,0.5,1.7,0.2c0.8-0.5,1.9-0.3,2.6,0.4c0.7,0.7,0.8,1.7,0.4,2.6
		c-0.3,0.6-0.2,1.2,0.2,1.7L8,21.7C8.2,21.9,8.5,22,8.9,22c0.3,0,0.6-0.1,0.9-0.4L21.7,9.7C22.2,9.3,22.2,8.5,21.7,8z M21.1,9.2
		L9.2,21.1c-0.2,0.2-0.4,0.2-0.6,0l-0.9-0.9c-0.2-0.2-0.2-0.4-0.1-0.7c0.6-1.2,0.4-2.6-0.5-3.6c-0.6-0.6-1.3-0.9-2.1-0.9
		c-0.5,0-1,0.1-1.4,0.4c-0.2,0.1-0.5,0.1-0.7-0.1l-0.9-0.9c-0.1-0.1-0.1-0.2-0.1-0.3c0-0.1,0-0.2,0.1-0.3L13.8,1.9
		c0.2-0.2,0.4-0.2,0.6,0l0.9,0.9c0.2,0.2,0.2,0.4,0.1,0.7c-0.6,1.2-0.4,2.6,0.5,3.6c0.9,0.9,2.4,1.1,3.6,0.5
		c0.2-0.1,0.5-0.1,0.7,0.1l0.9,0.9C21.3,8.7,21.3,9,21.1,9.2z"/>
</g>
</svg>
