<?xml version="1.0" encoding="utf-8"?>
<!-- Generator: Adobe Illustrator 19.0.0, SVG Export Plug-In . SVG Version: 6.00 Build 0)  -->
<svg version="1.1" id="Layer_1" xmlns="http://www.w3.org/2000/svg" xmlns:xlink="http://www.w3.org/1999/xlink" x="0px" y="0px"
	 viewBox="0 0 23 23" style="enable-background:new 0 0 23 23;" xml:space="preserve">
<style type="text/css">
	.st0{fill:#E20021;}
</style>
<g id="XMLID_254_">
	<path id="XMLID_258_" class="st0" d="M18.6,3.8h-0.9V2c0-0.2-0.2-0.4-0.4-0.4c-0.2,0-0.4,0.2-0.4,0.4v1.8H6.3V2
		c0-0.2-0.2-0.4-0.4-0.4S5.5,1.8,5.5,2v1.8H4.4C3,3.8,1.8,5,1.8,6.4v12.5c0,1.4,1.1,2.6,2.6,2.6h14.3c1.4,0,2.6-1.1,2.6-2.6V6.4
		C21.2,5,20,3.8,18.6,3.8z M4.4,4.6h1.1v1.2c0,0.2,0.2,0.4,0.4,0.4S6.3,6,6.3,5.8V4.6h10.6v1.2c0,0.2,0.2,0.4,0.4,0.4
		c0.2,0,0.4-0.2,0.4-0.4V4.6h0.9c1,0,1.7,0.8,1.7,1.7v0.7H2.6V6.4C2.6,5.4,3.4,4.6,4.4,4.6z M18.6,20.6H4.4c-1,0-1.7-0.8-1.7-1.7
		v-11h17.7v11C20.4,19.8,19.6,20.6,18.6,20.6z"/>
	<path id="XMLID_186_" class="st0" d="M9.9,11.3c-0.1-0.1-0.3,0-0.4,0.1l-1.8,1.5c-0.2,0.1-0.2,0.4-0.1,0.6c0.1,0.2,0.4,0.2,0.6,0.1
		l1.1-0.9v4c0,0.2,0.2,0.4,0.4,0.4c0.2,0,0.4-0.2,0.4-0.4v-4.9C10.2,11.5,10.1,11.3,9.9,11.3z"/>
	<path id="XMLID_185_" class="st0" d="M14.8,11.3h-3.4c-0.2,0-0.4,0.2-0.4,0.4s0.2,0.4,0.4,0.4h2.7l-2.2,4.1c-0.1,0.2,0,0.4,0.2,0.6
		c0.1,0,0.1,0.1,0.2,0.1c0.1,0,0.3-0.1,0.4-0.2l2.6-4.7c0.1-0.1,0.1-0.3,0-0.4C15,11.4,14.9,11.3,14.8,11.3z"/>
</g>
</svg>
