<?xml version="1.0" encoding="utf-8"?>
<!-- Generator: Adobe Illustrator 19.0.0, SVG Export Plug-In . SVG Version: 6.00 Build 0)  -->
<svg version="1.1" id="Layer_1" xmlns="http://www.w3.org/2000/svg" xmlns:xlink="http://www.w3.org/1999/xlink" x="0px" y="0px"
	 viewBox="0 0 23 23" style="enable-background:new 0 0 23 23;" xml:space="preserve">
<style type="text/css">
	.st0{fill:#9AAAE9;}
</style>
<g id="XMLID_223_">
	<path id="XMLID_248_" class="st0" d="M15.8,15.4c-3.3-1.7-6.1-4.4-7.9-7.7C7.8,7.6,7.7,7.6,7.5,7.6c-0.2,0-0.3,0.1-0.4,0.2l-6,13.9
		c-0.1,0.2,0,0.3,0.1,0.5c0.1,0.1,0.2,0.1,0.3,0.1c0.1,0,0.1,0,0.2,0l14.1-6c0.1-0.1,0.2-0.2,0.2-0.4C16.1,15.7,15.9,15.5,15.8,15.4
		z M2.4,21.1L7.6,8.9c1.7,2.9,4.2,5.2,7.1,6.9L2.4,21.1z"/>
	<path id="XMLID_78_" class="st0" d="M13.6,3.8l0-0.3c0-0.2-0.1-0.4-0.3-0.5c-0.2,0-0.4,0.1-0.5,0.3l0,0.3c-0.3,1.9-1.2,3.7-2.5,5.1
		l0.6,0.6C12.3,7.8,13.2,5.9,13.6,3.8z"/>
	<path id="XMLID_77_" class="st0" d="M8.5,1.9c0.7,1.8,0.8,3.8,0.4,5.7l0.8,0.2c0.5-2.1,0.3-4.2-0.4-6.2L9.2,1.3
		C9.1,1.1,8.9,1,8.7,1.1C8.5,1.2,8.4,1.4,8.4,1.6L8.5,1.9z"/>
	<path id="XMLID_76_" class="st0" d="M13.6,11.6l-0.2,0.2c-0.2,0.1-0.2,0.4-0.1,0.6c0.1,0.1,0.2,0.2,0.3,0.2c0.1,0,0.2,0,0.3-0.1
		l0.2-0.2c1.5-1.2,3.4-1.9,5.3-2.1c0.2,0,0.4-0.2,0.4-0.4c0-0.2-0.2-0.4-0.4-0.4C17.2,9.5,15.2,10.3,13.6,11.6z"/>
	<path id="XMLID_75_" class="st0" d="M21.5,11.9c-0.8-0.4-1.8-0.6-2.7-0.5l-0.1,0c-0.2,0-0.4,0.2-0.4,0.5c0,0.2,0.2,0.4,0.5,0.4
		l0.1,0c0.8-0.1,1.6,0,2.3,0.4c0.1,0,0.1,0,0.2,0c0.2,0,0.3-0.1,0.4-0.2C21.8,12.3,21.8,12,21.5,11.9z"/>
	<path id="XMLID_74_" class="st0" d="M10.7,1.4C11,2.1,11,2.9,10.8,3.7l0.8,0.2C11.9,3,11.8,2,11.5,1.1l0-0.1
		c-0.1-0.2-0.3-0.3-0.5-0.2c-0.2,0.1-0.3,0.3-0.2,0.5L10.7,1.4z"/>
	<path id="XMLID_73_" class="st0" d="M21.6,14.7c-1.8-1.1-3.9-1.6-6-1.5l-0.3,0c-0.2,0-0.4,0.2-0.4,0.4c0,0.2,0.2,0.4,0.4,0.4l0.3,0
		c1.9-0.1,3.9,0.4,5.5,1.4c0.1,0,0.1,0.1,0.2,0.1c0.1,0,0.3-0.1,0.4-0.2C21.9,15.1,21.8,14.8,21.6,14.7z"/>
	<path id="XMLID_72_" class="st0" d="M17.7,7.5c0.1,0,0.1,0,0.2,0l0.3-0.1l0.1,0.3c0.1,0.1,0.2,0.2,0.4,0.2c0.1,0,0.1,0,0.2,0
		C19,7.7,19.1,7.5,19,7.3L18.9,7l0.3-0.1c0.2-0.1,0.3-0.3,0.2-0.5c-0.1-0.2-0.3-0.3-0.5-0.2l-0.3,0.1l-0.1-0.3
		c-0.1-0.2-0.3-0.3-0.5-0.2c-0.2,0.1-0.3,0.3-0.2,0.5l0.1,0.3l-0.3,0.1c-0.2,0.1-0.3,0.3-0.2,0.5C17.4,7.4,17.5,7.5,17.7,7.5z"/>
	<path id="XMLID_71_" class="st0" d="M5.8,2.9c0.1,0,0.1,0,0.2,0l0.3-0.1L6.4,3c0.1,0.1,0.2,0.2,0.4,0.2c0.1,0,0.1,0,0.2,0
		c0.2-0.1,0.3-0.3,0.2-0.5L7,2.4l0.3-0.1c0.2-0.1,0.3-0.3,0.2-0.5C7.4,1.5,7.1,1.4,6.9,1.5L6.6,1.7L6.5,1.4C6.4,1.2,6.1,1.1,5.9,1.2
		C5.7,1.3,5.6,1.5,5.7,1.7L5.9,2L5.6,2.1C5.4,2.2,5.3,2.5,5.4,2.7C5.5,2.8,5.6,2.9,5.8,2.9z"/>
	<path id="XMLID_70_" class="st0" d="M19.8,17.7c-0.1-0.2-0.2-0.2-0.4-0.2c0-0.2-0.1-0.3-0.3-0.4c-0.2-0.1-0.3,0-0.4,0.1
		c-0.1-0.1-0.3-0.1-0.4-0.1c-0.2,0.1-0.2,0.2-0.2,0.4c-0.2,0-0.3,0.1-0.4,0.3c-0.1,0.2,0,0.3,0.1,0.4c-0.1,0.1-0.1,0.3-0.1,0.4
		c0.1,0.1,0.2,0.2,0.4,0.2c0,0,0,0,0,0c0,0.2,0.1,0.3,0.3,0.4c0,0,0.1,0,0.1,0c0.1,0,0.2-0.1,0.3-0.1c0.1,0.1,0.2,0.1,0.3,0.1
		c0.1,0,0.1,0,0.2,0c0.2-0.1,0.2-0.2,0.2-0.4c0.2,0,0.3-0.1,0.4-0.3c0.1-0.2,0-0.3-0.1-0.4C19.8,18.1,19.8,17.9,19.8,17.7z"/>
	<path id="XMLID_69_" class="st0" d="M13.2,8.3c-0.1,0.2,0,0.3,0.1,0.4c-0.1,0.1-0.1,0.3-0.1,0.4c0.1,0.1,0.2,0.2,0.4,0.2
		c0,0,0,0,0,0c0,0.2,0.1,0.3,0.3,0.4c0,0,0.1,0,0.1,0c0.1,0,0.2-0.1,0.3-0.1c0.1,0.1,0.2,0.1,0.3,0.1c0.1,0,0.1,0,0.2,0
		C14.9,9.6,15,9.5,15,9.3c0.2,0,0.3-0.1,0.4-0.3c0.1-0.2,0-0.3-0.1-0.4c0.1-0.1,0.1-0.3,0.1-0.4C15.3,8,15.1,7.9,14.9,8
		c0-0.2-0.1-0.3-0.3-0.4c-0.2-0.1-0.3,0-0.4,0.1c-0.1-0.1-0.3-0.1-0.4-0.1c-0.2,0.1-0.2,0.2-0.2,0.4C13.4,8,13.3,8.1,13.2,8.3z"/>
	<circle id="XMLID_68_" class="st0" cx="21.4" cy="10.2" r="0.3"/>
	<circle id="XMLID_67_" class="st0" cx="16.7" cy="8.3" r="0.3"/>
	<circle id="XMLID_66_" class="st0" cx="7.7" cy="4.6" r="0.3"/>
	<circle id="XMLID_65_" class="st0" cx="5.6" cy="5.5" r="0.5"/>
	<circle id="XMLID_64_" class="st0" cx="15.4" cy="5.2" r="0.5"/>
	<circle id="XMLID_63_" class="st0" cx="7.9" cy="11.7" r="0.5"/>
	<circle id="XMLID_62_" class="st0" cx="6.2" cy="15.5" r="0.5"/>
	<circle id="XMLID_61_" class="st0" cx="11.9" cy="15.5" r="0.5"/>
	<circle id="XMLID_60_" class="st0" cx="4.6" cy="19" r="0.5"/>
	<circle id="XMLID_59_" class="st0" cx="8.1" cy="17.3" r="0.5"/>
	<circle id="XMLID_58_" class="st0" cx="9.2" cy="14.5" r="0.5"/>
</g>
</svg>
