<?xml version="1.0" encoding="utf-8"?>
<!-- Generator: Adobe Illustrator 19.0.0, SVG Export Plug-In . SVG Version: 6.00 Build 0)  -->
<svg version="1.1" id="Layer_1" xmlns="http://www.w3.org/2000/svg" xmlns:xlink="http://www.w3.org/1999/xlink" x="0px" y="0px"
	 viewBox="0 0 23 23" style="enable-background:new 0 0 23 23;" xml:space="preserve">
<style type="text/css">
	.st0{fill:#009786;}
</style>
<g id="XMLID_261_">
	<g id="XMLID_268_">
		<path id="XMLID_269_" class="st0" d="M18.7,20.6H4.3c-1.2,0-2.3-1-2.3-2.3V6.5c0-1.2,1-2.3,2.3-2.3h14.4c1.2,0,2.3,1,2.3,2.3v11.9
			C21,19.6,19.9,20.6,18.7,20.6z M4.3,5C3.5,5,2.9,5.7,2.9,6.5v11.9c0,0.8,0.6,1.4,1.4,1.4h14.4c0.8,0,1.4-0.6,1.4-1.4V6.5
			c0-0.8-0.6-1.4-1.4-1.4H4.3z"/>
	</g>
	<g id="XMLID_264_">
		<path id="XMLID_265_" class="st0" d="M11.5,17.6c-2.8,0-5.1-2.3-5.1-5.1s2.3-5.1,5.1-5.1s5.1,2.3,5.1,5.1S14.3,17.6,11.5,17.6z
			 M11.5,8.1c-2.4,0-4.3,1.9-4.3,4.3s1.9,4.3,4.3,4.3s4.3-1.9,4.3-4.3S13.9,8.1,11.5,8.1z"/>
	</g>
	<g id="XMLID_262_">
		<path id="XMLID_156_" class="st0" d="M14.4,3.2H8.3C8.1,3.2,7.9,3,7.9,2.8s0.2-0.4,0.4-0.4h6.1c0.2,0,0.4,0.2,0.4,0.4
			S14.7,3.2,14.4,3.2z"/>
	</g>
</g>
</svg>
