<?xml version="1.0" encoding="utf-8"?>
<!-- Generator: Adobe Illustrator 19.0.0, SVG Export Plug-In . SVG Version: 6.00 Build 0)  -->
<svg version="1.1" id="Layer_1" xmlns="http://www.w3.org/2000/svg" xmlns:xlink="http://www.w3.org/1999/xlink" x="0px" y="0px"
	 viewBox="0 0 23 23" style="enable-background:new 0 0 23 23;" xml:space="preserve">
<style type="text/css">
	.st0{fill:#577D8B;}
</style>
<g id="XMLID_228_">
	<path id="XMLID_86_" class="st0" d="M18.2,9.3H9.9c-0.2,0-0.4,0.2-0.4,0.4c0,0.2,0.2,0.4,0.4,0.4h8.4c0.2,0,0.4-0.2,0.4-0.4
		C18.6,9.5,18.5,9.3,18.2,9.3z"/>
	<path id="XMLID_85_" class="st0" d="M16.7,12.2h-5.3c-0.2,0-0.4,0.2-0.4,0.4c0,0.2,0.2,0.4,0.4,0.4h5.3c0.2,0,0.4-0.2,0.4-0.4
		C17.1,12.4,16.9,12.2,16.7,12.2z"/>
	<path id="XMLID_229_" class="st0" d="M22.2,6.7c-0.3-0.4-0.8-0.6-1.2-0.6H5.3L4.9,4.7c-0.1-0.5-0.4-0.8-0.8-1L1,2.1
		C0.8,2,0.6,2.1,0.5,2.3c-0.1,0.2,0,0.4,0.2,0.5l3.1,1.5c0.2,0.1,0.4,0.3,0.4,0.5l2.6,10.6c0,0,0,0,0,0l0,0l0.1,0.3c0,0,0,0,0,0
		L7.4,18c0.2,0.7,0.8,1.2,1.6,1.2h0.2v0.3c0,0.7,0.6,1.3,1.3,1.3c0.7,0,1.3-0.6,1.3-1.3v-0.3h5.1v0.3c0,0.7,0.6,1.3,1.3,1.3
		c0.7,0,1.3-0.6,1.3-1.3v-0.3h0.8c0.2,0,0.4-0.2,0.4-0.4s-0.2-0.4-0.4-0.4H9c-0.4,0-0.7-0.3-0.8-0.6L8,17C8.1,17,8.3,17,8.4,17h11.3
		c0.8,0,1.4-0.6,1.6-1.3L22.6,8C22.6,7.5,22.5,7,22.2,6.7z M11,19.6c0,0.3-0.2,0.5-0.5,0.5c-0.3,0-0.5-0.2-0.5-0.5v-0.3h1V19.6z
		 M18.7,19.6c0,0.3-0.2,0.5-0.5,0.5c-0.3,0-0.5-0.2-0.5-0.5v-0.3h1V19.6z M20.4,15.6c-0.1,0.4-0.4,0.7-0.8,0.7H8.4
		c-0.4,0-0.7-0.2-0.8-0.6l-0.1-0.4c0,0,0,0,0,0L5.5,6.9H21c0.2,0,0.5,0.1,0.6,0.3c0.2,0.2,0.2,0.4,0.2,0.6L20.4,15.6z"/>
</g>
</svg>
