<?xml version="1.0" encoding="utf-8"?>
<!-- Generator: Adobe Illustrator 19.0.0, SVG Export Plug-In . SVG Version: 6.00 Build 0)  -->
<svg version="1.1" id="Layer_1" xmlns="http://www.w3.org/2000/svg" xmlns:xlink="http://www.w3.org/1999/xlink" x="0px" y="0px"
	 viewBox="0 0 23 23" style="enable-background:new 0 0 23 23;" xml:space="preserve">
<style type="text/css">
	.st0{fill:#A57C52;}
</style>
<path id="XMLID_247_" class="st0" d="M22.2,19.7L12.3,3.1L12.2,3c-0.4-0.4-1.1-0.4-1.5,0l-10,16.7c-0.1,0.2-0.1,0.4,0.1,0.6
	c0.2,0.1,0.4,0.1,0.6-0.1L6.3,12l0.9,1.1c0.6,0.7,1.7,0.8,2.5,0.2l0.6-0.5c0.4-0.3,0.9-0.3,1.3,0.1l1.3,1.3c0.3,0.3,0.8,0.5,1.2,0.5
	c0.1,0,0.2,0,0.3,0c0.6-0.1,1-0.4,1.3-0.9l1-1.8l4.9,8.1c0.1,0.1,0.2,0.2,0.4,0.2c0.1,0,0.1,0,0.2-0.1
	C22.3,20.1,22.3,19.9,22.2,19.7z M15,13.4c-0.1,0.3-0.4,0.5-0.7,0.5c-0.3,0-0.6-0.1-0.8-0.3l-1.3-1.3c-0.6-0.6-1.7-0.7-2.4-0.1
	l-0.6,0.5c-0.4,0.3-1,0.3-1.3-0.1l-1.1-1.3l4.6-7.7c0.1-0.1,0.2-0.1,0.3,0l4.5,7.6L15,13.4z"/>
</svg>
