<?xml version="1.0" encoding="utf-8"?>
<!-- Generator: Adobe Illustrator 19.0.0, SVG Export Plug-In . SVG Version: 6.00 Build 0)  -->
<svg version="1.1" id="Layer_1" xmlns="http://www.w3.org/2000/svg" xmlns:xlink="http://www.w3.org/1999/xlink" x="0px" y="0px"
	 viewBox="0 0 23 23" style="enable-background:new 0 0 23 23;" xml:space="preserve">
<style type="text/css">
	.st0{fill:#007AC8;}
</style>
<g id="XMLID_267_">
	<path id="XMLID_271_" class="st0" d="M7.9,7.6c1.7,0,3.1-1.4,3.1-3.1c0-1.7-1.4-3.1-3.1-3.1S4.8,2.8,4.8,4.5
		C4.8,6.2,6.2,7.6,7.9,7.6z M7.9,2.3c1.3,0,2.3,1,2.3,2.3s-1,2.3-2.3,2.3c-1.3,0-2.3-1-2.3-2.3S6.6,2.3,7.9,2.3z"/>
	<path id="XMLID_132_" class="st0" d="M22.9,19.6L15.6,8.9c-0.5-0.5-1.3-0.5-1.8,0l-3.6,4.4l-1.2-2L9,11.1c-0.5-0.5-1.3-0.5-1.8,0
		l-7.1,9.7c-0.1,0.2-0.1,0.4,0.1,0.6c0.1,0.1,0.2,0.1,0.2,0.1c0.1,0,0.3-0.1,0.3-0.2l7-9.7c0.2-0.2,0.4-0.2,0.6,0l5.2,8.7
		c0.1,0.2,0.4,0.3,0.6,0.1c0.2-0.1,0.3-0.4,0.1-0.6L10.7,14l3.7-4.6c0.2-0.2,0.5-0.2,0.6-0.1L22.3,20c0.1,0.1,0.2,0.2,0.3,0.2
		c0.1,0,0.2,0,0.2-0.1C23,20,23.1,19.7,22.9,19.6z"/>
</g>
</svg>
