<?xml version="1.0" encoding="utf-8"?>
<!-- Generator: Adobe Illustrator 19.0.0, SVG Export Plug-In . SVG Version: 6.00 Build 0)  -->
<svg version="1.1" id="Layer_1" xmlns="http://www.w3.org/2000/svg" xmlns:xlink="http://www.w3.org/1999/xlink" x="0px" y="0px"
	 viewBox="0 0 23 23" style="enable-background:new 0 0 23 23;" xml:space="preserve">
<style type="text/css">
	.st0{fill:#00DFD6;}
</style>
<path id="XMLID_270_" class="st0" d="M15,9.6c0.8-0.9,1.3-2,1.3-3.2c0-2.6-2.1-4.7-4.7-4.7S6.8,3.8,6.8,6.4c0,1.2,0.5,2.3,1.3,3.2
	C5,11,2.9,14,2.9,17.5c0,0.9,0.5,2.1,2.8,2.9c1.5,0.6,3.6,0.9,5.8,0.9c4.3,0,8.6-1.2,8.6-3.8C20.1,14,18,11,15,9.6z M7.6,6.4
	c0-2.1,1.7-3.9,3.9-3.9s3.9,1.7,3.9,3.9c0,1.1-0.5,2.1-1.3,2.9c-0.8-0.3-1.7-0.4-2.6-0.4c-0.9,0-1.8,0.1-2.6,0.4
	C8.1,8.6,7.6,7.5,7.6,6.4z M11.5,20.5c-3.8,0-7.8-1-7.8-3c0-4.3,3.5-7.8,7.8-7.8c4.3,0,7.8,3.5,7.8,7.8
	C19.3,19.4,15.3,20.5,11.5,20.5z"/>
</svg>
