<?xml version="1.0" encoding="utf-8"?>
<!-- Generator: Adobe Illustrator 19.0.0, SVG Export Plug-In . SVG Version: 6.00 Build 0)  -->
<svg version="1.1" id="Layer_1" xmlns="http://www.w3.org/2000/svg" xmlns:xlink="http://www.w3.org/1999/xlink" x="0px" y="0px"
	 viewBox="0 0 23 23" style="enable-background:new 0 0 23 23;" xml:space="preserve">
<style type="text/css">
	.st0{fill:#FA3E00;}
</style>
<g id="XMLID_252_">
	<path id="XMLID_256_" class="st0" d="M11.5,4.6C9,4.6,7,6.6,7,9.1s2,4.5,4.5,4.5c2.5,0,4.5-2,4.5-4.5S14,4.6,11.5,4.6z M11.5,12.7
		c-2,0-3.6-1.6-3.6-3.6s1.6-3.6,3.6-3.6c2,0,3.6,1.6,3.6,3.6S13.5,12.7,11.5,12.7z"/>
	<path id="XMLID_253_" class="st0" d="M11.5,1.8c-4,0-7.3,3.3-7.3,7.3c0,2.3,1.9,5.6,3,7.4c0.7,1.2,1.5,2.3,2.2,3.1
		c1.1,1.3,1.6,1.6,2.1,1.6c0.5,0,1-0.3,2.1-1.6c0.7-0.9,1.5-2,2.2-3.1c1.1-1.8,3-5.1,3-7.4C18.8,5.1,15.5,1.8,11.5,1.8z M15.1,16
		c-0.7,1.1-1.5,2.2-2.1,3c-1.1,1.3-1.3,1.3-1.4,1.3c-0.1,0-0.4,0-1.5-1.3c-0.7-0.8-1.4-1.9-2.1-3C6.8,14.3,5,11.2,5,9.1
		c0-3.6,2.9-6.5,6.5-6.5S18,5.5,18,9.1C18,11.2,16.2,14.3,15.1,16z"/>
</g>
</svg>
