<?xml version="1.0" encoding="utf-8"?>
<!-- Generator: Adobe Illustrator 19.0.0, SVG Export Plug-In . SVG Version: 6.00 Build 0)  -->
<svg version="1.1" id="Layer_1" xmlns="http://www.w3.org/2000/svg" xmlns:xlink="http://www.w3.org/1999/xlink" x="0px" y="0px"
	 viewBox="0 0 23 23" style="enable-background:new 0 0 23 23;" xml:space="preserve">
<style type="text/css">
	.st0{fill:#587E8C;}
</style>
<g id="XMLID_235_">
	<path id="XMLID_242_" class="st0" d="M15.4,5.7H15V3.7c0-1-0.8-1.9-1.9-1.9H9.9C8.9,1.8,8,2.7,8,3.7v1.9H7.6
		c-1.7,0-3.1,1.4-3.1,3.1v7.9c0,1.4,0.9,2.5,2.1,2.9V20c0,0.6,0.5,1.1,1.1,1.1s1.1-0.5,1.1-1.1v-0.2h5.3V20c0,0.6,0.5,1.1,1.1,1.1
		s1.1-0.5,1.1-1.1v-0.4c1.2-0.4,2.1-1.6,2.1-2.9V8.8C18.5,7.1,17.1,5.7,15.4,5.7z M8.9,3.7c0-0.6,0.5-1.1,1.1-1.1h3.1
		c0.6,0,1.1,0.5,1.1,1.1v1.9h-0.7V5.1c0-1-0.8-1.9-1.9-1.9S9.6,4,9.6,5.1v0.6H8.9V3.7z M12.6,5.7h-2.1V5.1c0-0.6,0.5-1.1,1.1-1.1
		c0.6,0,1.1,0.5,1.1,1.1V5.7z M8,20c0,0.2-0.1,0.3-0.3,0.3S7.4,20.2,7.4,20v-0.2c0.1,0,0.1,0,0.2,0H8V20z M15.6,20
		c0,0.2-0.1,0.3-0.3,0.3c-0.2,0-0.3-0.1-0.3-0.3v-0.2h0.4c0.1,0,0.1,0,0.2,0V20z M17.7,16.7c0,1.3-1,2.3-2.3,2.3H7.6
		c-1.3,0-2.3-1-2.3-2.3V8.8c0-1.3,1-2.3,2.3-2.3h7.8c1.3,0,2.3,1,2.3,2.3V16.7z"/>
	<path id="XMLID_117_" class="st0" d="M8.8,8.7c-0.2,0-0.4,0.2-0.4,0.4v7.6c0,0.2,0.2,0.4,0.4,0.4s0.4-0.2,0.4-0.4V9.2
		C9.2,8.9,9,8.7,8.8,8.7z"/>
	<path id="XMLID_116_" class="st0" d="M11.5,8.7c-0.2,0-0.4,0.2-0.4,0.4v7.6c0,0.2,0.2,0.4,0.4,0.4c0.2,0,0.4-0.2,0.4-0.4V9.2
		C11.9,8.9,11.7,8.7,11.5,8.7z"/>
	<path id="XMLID_115_" class="st0" d="M14.2,8.7c-0.2,0-0.4,0.2-0.4,0.4v7.6c0,0.2,0.2,0.4,0.4,0.4s0.4-0.2,0.4-0.4V9.2
		C14.6,8.9,14.4,8.7,14.2,8.7z"/>
</g>
</svg>
