<?xml version="1.0" encoding="utf-8"?>
<!-- Generator: Adobe Illustrator 19.0.0, SVG Export Plug-In . SVG Version: 6.00 Build 0)  -->
<svg version="1.1" id="Layer_1" xmlns="http://www.w3.org/2000/svg" xmlns:xlink="http://www.w3.org/1999/xlink" x="0px" y="0px"
	 viewBox="0 0 23 23" style="enable-background:new 0 0 23 23;" xml:space="preserve">
<style type="text/css">
	.st0{fill:#FD0060;}
</style>
<g id="XMLID_191_">
	<path id="XMLID_222_" class="st0" d="M18.1,5.9h-3.4V4.9c0-1.7-1.4-3-3.2-3s-3.2,1.4-3.2,3v0.9H4.9C3.8,5.9,3,6.7,3,7.8v10
		C3,19,4,20,5.3,20h1.2c0.2,0,0.4-0.2,0.4-0.4c0-0.2-0.2-0.4-0.4-0.4H5.3c-0.8,0-1.5-0.7-1.5-1.5v-10c0-0.6,0.5-1.1,1.1-1.1h3.4v0.7
		c0,0.2,0.2,0.4,0.4,0.4c0.2,0,0.4-0.2,0.4-0.4V6.7h4.8v0.7c0,0.2,0.2,0.4,0.4,0.4c0.2,0,0.4-0.2,0.4-0.4V6.7h3.4
		c0.6,0,1.1,0.5,1.1,1.1v10c0,0.8-0.7,1.5-1.5,1.5h-1.2c-0.2,0-0.4,0.2-0.4,0.4c0,0.2,0.2,0.4,0.4,0.4h1.2c1.3,0,2.3-1,2.3-2.3v-10
		C20,6.7,19.2,5.9,18.1,5.9z M9.1,5.9V4.9c0-1.2,1.1-2.2,2.4-2.2s2.4,1,2.4,2.2v0.9H9.1z"/>
	<path id="XMLID_192_" class="st0" d="M14.3,12.2h-0.8v-0.4c0-1.1-0.9-2-2-2c-1.1,0-2,0.9-2,2v0.4H8.7c-0.6,0-1.2,0.5-1.2,1.2v6.4
		c0,0.8,0.6,1.4,1.4,1.4h5.1c0.8,0,1.4-0.6,1.4-1.4v-6.4C15.4,12.7,14.9,12.2,14.3,12.2z M10.3,11.8c0-0.7,0.5-1.2,1.2-1.2
		c0.6,0,1.2,0.5,1.2,1.2v0.4h-2.4V11.8z M14.6,19.7c0,0.3-0.2,0.6-0.6,0.6H8.9c-0.3,0-0.6-0.2-0.6-0.6v-6.4c0-0.2,0.2-0.4,0.4-0.4
		h0.8v0.6c0,0.2,0.2,0.4,0.4,0.4c0.2,0,0.4-0.2,0.4-0.4V13h2.4v0.6c0,0.2,0.2,0.4,0.4,0.4s0.4-0.2,0.4-0.4V13h0.8
		c0.2,0,0.4,0.2,0.4,0.4V19.7z"/>
</g>
</svg>
