<?xml version="1.0" encoding="utf-8"?>
<!-- Generator: Adobe Illustrator 19.0.0, SVG Export Plug-In . SVG Version: 6.00 Build 0)  -->
<svg version="1.1" id="Layer_1" xmlns="http://www.w3.org/2000/svg" xmlns:xlink="http://www.w3.org/1999/xlink" x="0px" y="0px"
	 viewBox="0 0 23 23" style="enable-background:new 0 0 23 23;" xml:space="preserve">
<style type="text/css">
	.st0{fill:#009DA6;}
</style>
<g id="XMLID_224_">
	<path id="XMLID_243_" class="st0" d="M17,16.8c0-1.4-1.2-2.6-2.6-2.6s-2.6,1.2-2.6,2.6c0,1.4,1.1,2.5,2.4,2.6
		C13,19.5,12,20.5,12,21.7h0.8c0-0.9,0.7-1.6,1.6-1.6c0.9,0,1.6,0.7,1.6,1.6h0.8c0-1.2-0.9-2.2-2.2-2.4C15.9,19.3,17,18.1,17,16.8z
		 M14.4,18.6c-1,0-1.8-0.8-1.8-1.8s0.8-1.8,1.8-1.8s1.8,0.8,1.8,1.8S15.4,18.6,14.4,18.6z"/>
	<path id="XMLID_240_" class="st0" d="M11.2,16.8c0-1.4-1.2-2.6-2.6-2.6c-1.4,0-2.6,1.2-2.6,2.6c0,1.4,1.1,2.5,2.4,2.6
		c-1.2,0.1-2.2,1.1-2.2,2.4h0.8c0-0.9,0.7-1.6,1.6-1.6s1.6,0.7,1.6,1.6H11c0-1.2-0.9-2.2-2.2-2.4C10.2,19.3,11.2,18.1,11.2,16.8z
		 M8.6,18.6c-1,0-1.8-0.8-1.8-1.8S7.6,15,8.6,15c1,0,1.8,0.8,1.8,1.8S9.6,18.6,8.6,18.6z"/>
	<path id="XMLID_237_" class="st0" d="M19.9,16.3c1.3-0.1,2.4-1.2,2.4-2.6c0-1.4-1.2-2.6-2.6-2.6c-1.4,0-2.6,1.2-2.6,2.6
		c0,1.4,1.1,2.5,2.4,2.6c-1.2,0.1-2.2,1.1-2.2,2.4h0.8c0-0.9,0.7-1.6,1.6-1.6c0.9,0,1.6,0.7,1.6,1.6h0.8
		C22.1,17.4,21.1,16.4,19.9,16.3z M17.9,13.7c0-1,0.8-1.8,1.8-1.8c1,0,1.8,0.8,1.8,1.8s-0.8,1.8-1.8,1.8
		C18.7,15.5,17.9,14.7,17.9,13.7z"/>
	<path id="XMLID_234_" class="st0" d="M5.9,13.6c0-1.4-1.2-2.6-2.6-2.6c-1.4,0-2.6,1.2-2.6,2.6c0,1.4,1.1,2.5,2.4,2.6
		c-1.2,0.1-2.2,1.1-2.2,2.4h0.8c0-0.9,0.7-1.6,1.6-1.6s1.6,0.7,1.6,1.6h0.8c0-1.2-0.9-2.2-2.2-2.4C4.9,16.1,5.9,15,5.9,13.6z
		 M3.3,15.4c-1,0-1.8-0.8-1.8-1.8s0.8-1.8,1.8-1.8c1,0,1.8,0.8,1.8,1.8S4.3,15.4,3.3,15.4z"/>
	<path id="XMLID_231_" class="st0" d="M13.1,10.4V13c0,0.2,0.2,0.4,0.4,0.4s0.4-0.2,0.4-0.4v-2.6c0-1.2-0.9-2.2-2.2-2.4
		c1.3-0.1,2.4-1.2,2.4-2.6c0-1.4-1.2-2.6-2.6-2.6c-1.4,0-2.6,1.2-2.6,2.6c0,1.4,1.1,2.5,2.4,2.6C10.2,8.1,9.4,9,9.2,10H8.5
		c-0.8,0-1.5-0.5-1.8-1.3L6.3,7.4C6.2,7.2,6,7.1,5.8,7.2C5.6,7.3,5.5,7.5,5.5,7.7L6,9c0.4,1.1,1.4,1.8,2.5,1.8h0.6V13
		c0,0.2,0.2,0.4,0.4,0.4S10,13.2,10,13v-2.6c0-0.9,0.7-1.6,1.6-1.6C12.4,8.8,13.1,9.5,13.1,10.4z M9.7,5.4c0-1,0.8-1.8,1.8-1.8
		c1,0,1.8,0.8,1.8,1.8c0,1-0.8,1.8-1.8,1.8C10.5,7.3,9.7,6.4,9.7,5.4z"/>
	<path id="XMLID_225_" class="st0" d="M5.9,6.6c0.2,0,0.4-0.2,0.4-0.4V4.6c0,0,0,0,0,0l2-1c0.1-0.1,0.2-0.2,0.2-0.3
		c0-0.1-0.1-0.3-0.2-0.4L6.1,1.3C6,1.3,5.9,1.2,5.7,1.3C5.6,1.4,5.5,1.5,5.5,1.7v4.5C5.5,6.4,5.7,6.6,5.9,6.6z M6.3,2.4l1.1,0.7
		L6.3,3.7V2.4z"/>
</g>
</svg>
