<?xml version="1.0" encoding="utf-8"?>
<!-- Generator: Adobe Illustrator 19.0.0, SVG Export Plug-In . SVG Version: 6.00 Build 0)  -->
<svg version="1.1" id="Layer_1" xmlns="http://www.w3.org/2000/svg" xmlns:xlink="http://www.w3.org/1999/xlink" x="0px" y="0px"
	 viewBox="0 0 23 23" style="enable-background:new 0 0 23 23;" xml:space="preserve">
<style type="text/css">
	.st0{fill:#F80000;}
</style>
<g id="XMLID_233_">
	<path id="XMLID_250_" class="st0" d="M20,9.1h-0.3L18,4c-0.2-0.7-0.8-1.1-1.5-1.1H6.4C5.7,2.8,5.1,3.3,4.9,4L3.1,9.1c0,0,0,0,0,0H3
		c-1.5,0-2.8,1.2-2.8,2.8v3.6c0,1.4,1.1,2.6,2.5,2.7v1.7c0,0.9,0.8,1.7,1.7,1.7h1.4c0.9,0,1.7-0.8,1.7-1.7v-1.7h8.1v1.7
		c0,0.9,0.8,1.7,1.7,1.7h1.4c0.9,0,1.7-0.8,1.7-1.7v-1.7c1.3-0.2,2.4-1.3,2.4-2.7v-3.6C22.7,10.3,21.5,9.1,20,9.1z M5.6,4.2
		C5.7,3.9,6,3.6,6.4,3.6h10.1c0.3,0,0.6,0.2,0.8,0.6l1.6,4.8H3.9L5.6,4.2z M6.7,19.9c0,0.5-0.4,0.9-0.9,0.9H4.5
		c-0.5,0-0.9-0.4-0.9-0.9v-1.7h3.1V19.9z M18.7,20.8h-1.4c-0.5,0-0.9-0.4-0.9-0.9v-1.7h3.1v1.7C19.5,20.4,19.2,20.8,18.7,20.8z
		 M21.9,15.5c0,1.1-0.9,1.9-1.9,1.9H3c-1.1,0-1.9-0.9-1.9-1.9v-3.6C1.1,10.8,2,9.9,3,9.9h17c1.1,0,1.9,0.9,1.9,1.9V15.5z"/>
	<path id="XMLID_244_" class="st0" d="M18.7,11.6c-1.1,0-2,0.9-2,2s0.9,2,2,2c1.1,0,2-0.9,2-2S19.8,11.6,18.7,11.6z M18.7,14.8
		c-0.7,0-1.2-0.5-1.2-1.2s0.5-1.2,1.2-1.2c0.7,0,1.2,0.5,1.2,1.2S19.3,14.8,18.7,14.8z"/>
	<path id="XMLID_239_" class="st0" d="M4.3,11.6c-1.1,0-2,0.9-2,2s0.9,2,2,2s2-0.9,2-2S5.4,11.6,4.3,11.6z M4.3,14.8
		c-0.7,0-1.2-0.5-1.2-1.2s0.5-1.2,1.2-1.2s1.2,0.5,1.2,1.2S5,14.8,4.3,14.8z"/>
	<path id="XMLID_105_" class="st0" d="M14.5,12.6h-6c-0.2,0-0.4,0.2-0.4,0.4c0,0.2,0.2,0.4,0.4,0.4h6c0.2,0,0.4-0.2,0.4-0.4
		C14.9,12.8,14.7,12.6,14.5,12.6z"/>
	<path id="XMLID_104_" class="st0" d="M14.5,14.3h-6c-0.2,0-0.4,0.2-0.4,0.4c0,0.2,0.2,0.4,0.4,0.4h6c0.2,0,0.4-0.2,0.4-0.4
		C14.9,14.4,14.7,14.3,14.5,14.3z"/>
	<path id="XMLID_103_" class="st0" d="M8.5,2.2h5.7c0.2,0,0.4-0.2,0.4-0.4s-0.2-0.4-0.4-0.4H8.5c-0.2,0-0.4,0.2-0.4,0.4
		S8.3,2.2,8.5,2.2z"/>
</g>
</svg>
