<?xml version="1.0" encoding="utf-8"?>
<!-- Generator: Adobe Illustrator 19.0.0, SVG Export Plug-In . SVG Version: 6.00 Build 0)  -->
<svg version="1.1" id="Layer_1" xmlns="http://www.w3.org/2000/svg" xmlns:xlink="http://www.w3.org/1999/xlink" x="0px" y="0px"
	 viewBox="0 0 9 12" style="enable-background:new 0 0 9 12;" xml:space="preserve">
<style type="text/css">
	.st0{fill:#43D6C8;}
</style>
<path class="st0" d="M4.5,0.5c-2.2,0-4.1,1.8-4.1,4.1c0,1.3,1.1,3.2,1.7,4.3c0.4,0.7,0.9,1.3,1.3,1.8c0.6,0.8,0.9,0.9,1,0.9
	c0.2,0,0.4-0.1,1-0.9c0.4-0.5,0.9-1.1,1.3-1.8c0.7-1,1.7-3,1.7-4.3C8.6,2.3,6.7,0.5,4.5,0.5z M4.5,7C3.2,7,2.1,5.9,2.1,4.6
	c0-1.3,1.1-2.4,2.4-2.4c1.3,0,2.4,1.1,2.4,2.4C6.9,5.9,5.8,7,4.5,7z"/>
</svg>
