<?xml version="1.0" encoding="utf-8"?>
<!-- Generator: Adobe Illustrator 19.0.0, SVG Export Plug-In . SVG Version: 6.00 Build 0)  -->
<svg version="1.1" id="Layer_1" xmlns="http://www.w3.org/2000/svg" xmlns:xlink="http://www.w3.org/1999/xlink" x="0px" y="0px"
	 viewBox="0 0 19.8 20.5" style="enable-background:new 0 0 19.8 20.5;" xml:space="preserve">
<style type="text/css">
	.st0{fill:#CCCCCC;}
</style>
<path class="st0" d="M19.5,18.7l-4.9-5.1c1.3-1.5,1.9-3.4,1.9-5.3c0-4.6-3.7-8.3-8.3-8.3C3.7,0,0,3.7,0,8.3c0,4.6,3.7,8.3,8.3,8.3
	c1.7,0,3.4-0.5,4.8-1.5l4.9,5.1c0.2,0.2,0.5,0.3,0.8,0.3c0.3,0,0.5-0.1,0.7-0.3C19.9,19.8,19.9,19.1,19.5,18.7L19.5,18.7z M8.3,1.5
	c3.8,0,6.8,3.1,6.8,6.8c0,3.8-3.1,6.8-6.8,6.8c-3.8,0-6.8-3.1-6.8-6.8C1.5,4.5,4.5,1.5,8.3,1.5L8.3,1.5z M8.3,2.2"/>
</svg>
