<?xml version="1.0" encoding="utf-8"?>
<!-- Generator: Adobe Illustrator 19.0.0, SVG Export Plug-In . SVG Version: 6.00 Build 0)  -->
<svg version="1.1" id="Layer_1" xmlns="http://www.w3.org/2000/svg" xmlns:xlink="http://www.w3.org/1999/xlink" x="0px" y="0px"
	 viewBox="0 0 146.4 50.1" style="enable-background:new 0 0 146.4 50.1;" xml:space="preserve">
<style type="text/css">
	.st0{fill:url(#SVGID_1_);}
	.st1{fill:url(#SVGID_2_);}
	.st2{fill:url(#SVGID_3_);}
	.st3{fill:url(#SVGID_4_);}
	.st4{fill:url(#SVGID_5_);}
	.st5{fill:url(#SVGID_6_);}
	.st6{opacity:0.4;}
	.st7{fill:#78E6D6;}
	.st8{fill:url(#SVGID_7_);}
</style>
<linearGradient id="SVGID_1_" gradientUnits="userSpaceOnUse" x1="49.7143" y1="28.7346" x2="71.9041" y2="28.7346">
	<stop  offset="0" style="stop-color:#78E6D6"/>
	<stop  offset="1" style="stop-color:#29CACC"/>
</linearGradient>
<path class="st0" d="M68.5,19.3c4.4,0,4,3.1,1.7,6.8c-1.1,1.8-3.1,3.8-3.7,4.3h-9.7c-1.4,2.4-0.5,3.4,1.6,3.4c1,0,2.6-0.6,3.7-1.2
	l-0.3,3.6c-2.1,1-4.9,1.9-7.9,1.9c-4.4,0-5.6-2.9-2.6-7.8C55.6,23.8,63.7,19.3,68.5,19.3z M64.8,27c0.3-0.3,0.6-0.7,0.9-1.2
	c0.8-1.2,0.9-2.2-0.7-2.2c-1.4,0-3.4,1-5.7,3.3H64.8z"/>
<linearGradient id="SVGID_2_" gradientUnits="userSpaceOnUse" x1="63.8343" y1="28.9501" x2="91.5811" y2="28.9501">
	<stop  offset="0" style="stop-color:#78E6D6"/>
	<stop  offset="1" style="stop-color:#29CACC"/>
</linearGradient>
<path class="st1" d="M74.7,28.3l0-8.3h5.8l-0.1,2.8c-0.1,1-0.2,2-0.3,3.1h0.1c0.9-1,1.9-2,2.8-3.1l2.4-2.8h6.1l-10.4,9.6l0.2,8.3
	h-5.9l0.1-2.7c0-1,0.1-2.1,0.2-3.1h-0.1c-0.9,1-2,2-3,3.1L70,37.9h-6.1L74.7,28.3z"/>
<linearGradient id="SVGID_3_" gradientUnits="userSpaceOnUse" x1="86.3637" y1="26.8655" x2="106.1377" y2="26.8655">
	<stop  offset="0" style="stop-color:#78E6D6"/>
	<stop  offset="1" style="stop-color:#29CACC"/>
</linearGradient>
<path class="st2" d="M87.2,33.3c0.4-0.8,1-1.6,1.6-2.4l4.9-6.5h-3.8l4.7-4.5h2.7l4.1-4.6h4.8l-3.3,4.6h3.2l-2.5,4.5h-4.2l-5,6.8
	c-0.3,0.4-0.5,0.8-0.7,1.2c-0.6,1.1-0.3,1.6,0.9,1.6c0.4,0,0.9-0.1,1.5-0.4l-2.5,4.4c-1.2,0.4-1.6,0.4-3.6,0.4
	C86.1,38.4,85.6,36.3,87.2,33.3z"/>
<linearGradient id="SVGID_4_" gradientUnits="userSpaceOnUse" x1="98.6264" y1="28.7316" x2="120.0258" y2="28.7316">
	<stop  offset="0" style="stop-color:#78E6D6"/>
	<stop  offset="1" style="stop-color:#29CACC"/>
</linearGradient>
<path class="st3" d="M108.7,20h4.7l-1.4,3.5h0.1c2.2-2.3,4.9-3.9,6.9-4c0.5,0,0.7,0,1,0.1l-2.9,5.2c-0.4-0.3-1.2-0.3-1.8-0.3
	c-1.5,0-3.1,0.9-5.4,3.3l-5.6,10.1h-5.8L108.7,20z"/>
<linearGradient id="SVGID_5_" gradientUnits="userSpaceOnUse" x1="112.788" y1="24.8527" x2="132.1552" y2="24.8527">
	<stop  offset="0" style="stop-color:#78E6D6"/>
	<stop  offset="1" style="stop-color:#29CACC"/>
</linearGradient>
<path class="st4" d="M122.9,20h5.8l-10.1,18h-5.8L122.9,20z M125.3,15c0.6-1.7,2.7-3.2,4.6-3.2c1.5,0,2.7,0.9,2.1,2.7
	c-0.7,1.9-2.7,3.2-4.6,3.2C125.8,17.7,124.6,16.8,125.3,15z"/>
<linearGradient id="SVGID_6_" gradientUnits="userSpaceOnUse" x1="119.7589" y1="31.8974" x2="146.372" y2="31.8974">
	<stop  offset="0" style="stop-color:#78E6D6"/>
	<stop  offset="1" style="stop-color:#29CACC"/>
</linearGradient>
<path class="st5" d="M125.2,44.3h-5.4L132.6,20h5.2l-1,1.9h0.1c2.1-1.4,4.3-2.4,6-2.4c3.2,0,4.3,2.4,2.9,6.6
	c-2.2,6.8-8.6,12.2-13.6,12.2c-1.4,0-2.4-0.7-2.7-1.9h-0.1L125.2,44.3z M134.4,26.6l-2.8,5.3c0.1,0.9,0.9,1.8,1.6,1.8
	c2.1,0,4.9-2.8,6.3-6.8c0.6-1.9,0.2-2.7-0.8-2.7C137.9,24.2,135.8,25.1,134.4,26.6z"/>
<g class="st6">
	<path id="XMLID_51_" class="st7" d="M21,10.9l-0.7-0.7c-0.1-0.1-2-2-4.2,0l-0.7,0.6l0-1c0-0.7-0.1-5.5-0.1-5.7
		c0-0.6,0.1-1.2,0.4-1.9c0.3-0.6,0.6-1.1,1.1-1.6c0.3-0.3,0.7-0.5,1-0.6C18,0,18.3,0,18.7,0.1c0.3,0.1,0.6,0.2,0.8,0.5l0.2,0.2
		c0.3,0.3,0.7,0.8,1,1.3c0.3,0.6,0.5,1.1,0.4,1.7L21,10.9z M18.2,0.9c-0.1,0-0.1,0-0.2,0c-0.3,0.1-0.5,0.2-0.7,0.4
		c-0.4,0.4-0.6,0.8-0.9,1.3c-0.2,0.5-0.3,1-0.3,1.5c0,0,0,3.2,0.1,4.9c1.5-0.9,3-0.6,3.9,0l0.1-5.2c0-0.4-0.1-0.8-0.3-1.2
		c-0.3-0.5-0.6-0.8-0.8-1.1l-0.2-0.2C18.7,1,18.6,1,18.4,0.9C18.3,0.9,18.3,0.9,18.2,0.9z"/>
</g>
<g class="st6">
	<path id="XMLID_48_" class="st7" d="M18.1,42.7c-0.3,0-0.6-0.1-0.9-0.4c-0.2-0.2-0.4-0.5-0.5-0.8c-0.2-0.3-0.2-0.6-0.3-0.9
		l-0.1-0.9l0,0c0,0,0,0,0,0l-3.3,2c-0.5,0.2-0.9,0.1-1.2-0.2l-0.2-0.3L11.5,41l0-1.9c0-0.2,0-0.3,0.1-0.5c0.1-0.2,0.1-0.3,0.2-0.4
		l3.7-4c0-0.6,0-2.8,0.1-3.7l0-0.1l0.1-0.1c0.7-1,1.6-1.6,2.5-1.6c0,0,0,0,0.1,0c1.6,0,2.8,1.5,2.9,1.6c0.1,0.1,0.1,0.1,0.1,0.6
		c0,2.2,0,3.1,0,3.4c0.7,0.7,2.9,3.6,3.1,3.8c0.3,0.4,0.5,0.9,0.5,1.4V41c0,0.3-0.2,0.4-0.3,0.6c-0.2,0.2-0.5,0.3-0.8,0.3
		c-0.2,0-0.4-0.1-0.5-0.2l-3.3-2c-0.1,0.1-0.1,0.2-0.1,0.2c0,0.3,0,0.5,0,0.7c-0.1,0.6-0.3,1.2-0.8,1.7
		C18.7,42.6,18.4,42.7,18.1,42.7z M17.2,39.5L17.2,39.5l0.1,1.1c0,0.2,0.1,0.4,0.2,0.6c0.1,0.2,0.2,0.4,0.4,0.5
		c0.2,0.2,0.3,0.2,0.5,0c0.4-0.4,0.5-0.7,0.6-1.1c0-0.1,0-0.3,0-0.5c0-0.3,0.1-0.7,0.3-1c0.1-0.1,0.2-0.2,0.4-0.2
		c0.2-0.1,0.5,0,0.7,0.1l3.3,2c0.1,0,0.2,0.1,0.3,0.1l0-0.1v-1.5c0-0.3-0.1-0.6-0.3-0.8l0,0c-0.9-1.2-2.8-3.5-3.2-3.9
		c-0.1-0.2-0.1-0.2-0.2-3.9l0-0.1c-0.3-0.3-1.1-1.2-2.1-1.1c-0.6,0-1.2,0.4-1.7,1.1c-0.1,1.1,0,3.7,0,3.7l0,0.2l-3.9,4.3
		c0,0.1,0,0.2,0,0.3l0,1.7c0.1,0.1,0.1,0.1,0.2,0.1l3.3-2c0.2-0.1,0.3-0.1,0.5-0.1c0.3,0,0.5,0.1,0.6,0.2c0.1,0.1,0.1,0.2,0.2,0.3
		l0,0L17.2,39.5z"/>
</g>
<g class="st6">
	<path id="XMLID_45_" class="st7" d="M36.5,50.1c-0.1,0-0.3,0-0.4-0.1c-0.3-0.1-0.6-0.2-0.8-0.5L35,49.4c-0.3-0.3-0.7-0.8-1-1.3
		c-0.3-0.6-0.5-1.1-0.4-1.7l0.1-7.1l0.7,0.6c0.1,0.1,2,1.7,4.2,0l0.7-0.5l0,0.9c0,0.7,0.1,5.5,0.1,5.7c0,0.6-0.1,1.8-0.4,2.4
		c-0.2,0.5-0.5,0.6-0.7,0.8c-0.1,0.1-0.2,0.1-0.3,0.2c-0.3,0.3-0.7,0.5-1,0.6C36.8,50.1,36.6,50.1,36.5,50.1z M34.5,41.1l-0.1,5.3
		c0,0.4,0.1,0.8,0.3,1.2c0.3,0.5,0.6,0.8,0.8,1.1l0.2,0.2c0.1,0.1,0.3,0.2,0.4,0.3c0.1,0,0.3,0,0.4,0c0.3-0.1,0.5-0.2,0.7-0.4
		c0.2-0.2,0.4-0.3,0.5-0.4c0.2-0.1,0.3-0.2,0.4-0.4c0.2-0.5,0.3-1.5,0.3-2c0,0-0.1-3.3-0.1-4.9C36.8,42,35.4,41.5,34.5,41.1z"/>
</g>
<g class="st6">
	<path id="XMLID_42_" class="st7" d="M36.6,21.5c-1.6,0-2.8-1.4-2.9-1.4c-0.1-0.1-0.1-0.2-0.1-0.5c0-1.9,0-2.6,0-2.9
		c-0.7-0.8-2.8-3.9-3.1-4.4c-0.3-0.4-0.5-0.8-0.5-1.4V9.3c0-0.3,0.2-0.4,0.3-0.6c0.2-0.2,0.5-0.3,0.8-0.3c0.2,0,0.4,0.1,0.5,0.2
		l3.3,2c0.1-0.1,0.1-0.2,0.1-0.2c0-0.3,0-0.5,0-0.7c0.1-0.6,0.3-1.2,0.8-1.7c0.6-0.6,1.2-0.6,1.8,0c0.2,0.2,0.4,0.5,0.5,0.8
		c0.2,0.3,0.2,0.6,0.3,0.9l0.1,0.9l0,0c0,0,0,0,0,0l3.3-2c0.5-0.2,0.9-0.1,1.2,0.2C43,8.9,43,8.9,43.1,8.9l0.1,0.1l0.1,0.2l0,1.9
		c0,0.2,0,0.3-0.1,0.5c-0.1,0.2-0.1,0.3-0.2,0.4l-3.7,4c0,0.6,0,2.8-0.1,3.7l0,0.1L39.1,20C38.4,20.9,37.6,21.4,36.6,21.5
		C36.6,21.5,36.6,21.5,36.6,21.5z M34.5,19.6c0.3,0.3,1.2,1,2.1,1c0.6,0,1.2-0.4,1.7-1c0-1.1,0-3.7,0-3.7v-0.2l3.9-4.3
		c0-0.1,0-0.2,0-0.3l0-1.7c-0.1-0.1-0.1-0.1-0.2-0.1l-3.3,2c-0.2,0.1-0.3,0.1-0.5,0.1c-0.3,0-0.5-0.1-0.6-0.2
		c-0.1-0.1-0.1-0.2-0.2-0.3l0,0l-0.1-1.2c0-0.2-0.1-0.4-0.2-0.6C37.1,9,37,8.8,36.8,8.6c-0.2-0.2-0.3-0.2-0.5,0
		c-0.4,0.4-0.5,0.7-0.6,1.1c0,0.1,0,0.3,0,0.5c0,0.3-0.1,0.7-0.3,1c-0.1,0.1-0.2,0.2-0.4,0.2c-0.2,0.1-0.5,0-0.7-0.1l-3.3-2
		c-0.1,0-0.2-0.1-0.3-0.1l0,0.1v1.5c0,0.3,0.1,0.6,0.3,0.8l0,0.1c1.1,1.6,2.8,4.1,3.2,4.4C34.4,16.3,34.4,16.3,34.5,19.6L34.5,19.6z
		"/>
</g>
<linearGradient id="SVGID_7_" gradientUnits="userSpaceOnUse" x1="0" y1="25.232" x2="54.6644" y2="25.232">
	<stop  offset="0" style="stop-color:#78E6D6"/>
	<stop  offset="1" style="stop-color:#29CACC"/>
</linearGradient>
<path class="st8" d="M54.7,18.2c0-0.1,0-0.1-0.1-0.2l-0.1-0.1c-0.1-0.1-0.1-0.1-0.2-0.2c-0.1-0.1-0.2-0.1-0.3,0l-13.4,6.8
	c0,0-4.8,2.6-8.2,0c0,0-11.5-10.1-11.7-10.2c-1.8-1.4-4.2-0.5-4.7,0C15.8,14.3,0.1,30,0.1,30c0,0-0.1,0.1-0.1,0.2c0,0.1,0,0.2,0,0.2
	l0,1.8c0,0.1,0,0.1,0.1,0.2l0.1,0.1c0.1,0.1,0.1,0.1,0.2,0.2c0.1,0.1,0.2,0.1,0.3,0l13.4-6.8c0.1,0,5.2-2.8,8.2,0
	c0,0,11.7,10.2,11.7,10.2c2.5,1.9,4.7,0,4.7,0l15.8-15.8c0,0,0.1-0.1,0.1-0.2c0-0.1,0-0.2,0-0.2L54.7,18.2z"/>
</svg>
